<svg width="40" height="40" viewBox="0 0 40 40" fill="none" xmlns="http://www.w3.org/2000/svg">
<path fill-rule="evenodd" clip-rule="evenodd" d="M11.7028 21.463C11.4448 21.463 11.1973 21.5655 11.0148 21.748C10.8323 21.9304 10.7298 22.1779 10.7298 22.436V26.4653C10.7298 27.0406 10.2634 27.5069 9.68815 27.5069C9.11285 27.5069 8.64648 27.0406 8.64648 26.4653V22.436C8.64648 21.6254 8.96849 20.848 9.54166 20.2748C10.1148 19.7016 10.8922 19.3796 11.7028 19.3796H27.82C28.6306 19.3796 29.408 19.7016 29.9812 20.2748C30.5543 20.848 30.8763 21.6254 30.8763 22.436V26.4653C30.8763 27.0406 30.41 27.5069 29.8347 27.5069C29.2594 27.5069 28.793 27.0406 28.793 26.4653V22.436C28.793 22.1779 28.6905 21.9304 28.508 21.748C28.3255 21.5655 28.0781 21.463 27.82 21.463H11.7028Z" fill="#00FFFF"/>
<path fill-rule="evenodd" clip-rule="evenodd" d="M19.7614 13.3356C20.3367 13.3356 20.8031 13.8019 20.8031 14.3772V26.4652C20.8031 27.0404 20.3367 27.5068 19.7614 27.5068C19.1861 27.5068 18.7197 27.0404 18.7197 26.4652V14.3772C18.7197 13.8019 19.1861 13.3356 19.7614 13.3356Z" fill="#00FFFF"/>
<path d="M16.7393 10.348V12.3626C16.7393 12.8969 16.9515 13.4094 17.3293 13.7872C17.7072 14.165 18.2196 14.3773 18.7539 14.3773H20.7686C21.3029 14.3773 21.8153 14.165 22.1931 13.7872C22.571 13.4094 22.7832 12.8969 22.7832 12.3626V10.348C22.7832 9.81365 22.571 9.30121 22.1931 8.92339C21.8153 8.54557 21.3029 8.33331 20.7686 8.33331H18.7539C18.2196 8.33331 17.7072 8.54557 17.3293 8.92339C16.9515 9.30121 16.7393 9.81365 16.7393 10.348Z" fill="#00FFFF"/>
<path fill-rule="evenodd" clip-rule="evenodd" d="M16.7404 8.33416C17.2745 7.80005 17.9989 7.5 18.7542 7.5H20.7689C21.5242 7.5 22.2486 7.80005 22.7827 8.33416C23.3168 8.86826 23.6169 9.59265 23.6169 10.348V12.3626C23.6169 13.118 23.3168 13.8424 22.7827 14.3765C22.2486 14.9106 21.5242 15.2106 20.7689 15.2106H18.7542C17.9989 15.2106 17.2745 14.9106 16.7404 14.3765C16.2063 13.8424 15.9062 13.118 15.9062 12.3626V10.348C15.9062 9.59265 16.2063 8.86826 16.7404 8.33416ZM18.7542 9.16667C18.4409 9.16667 18.1405 9.29113 17.9189 9.51267C17.6974 9.73421 17.5729 10.0347 17.5729 10.348V12.3626C17.5729 12.6759 17.6974 12.9764 17.9189 13.198C18.1405 13.4195 18.4409 13.544 18.7542 13.544H20.7689C21.0822 13.544 21.3827 13.4195 21.6042 13.198C21.8257 12.9764 21.9502 12.6759 21.9502 12.3626V10.348C21.9502 10.0347 21.8257 9.73421 21.6042 9.51267C21.3827 9.29113 21.0822 9.16667 20.7689 9.16667H18.7542Z" fill="#00FFFF"/>
<path d="M16.7393 28.4799V30.4945C16.7393 31.0288 16.9515 31.5413 17.3293 31.9191C17.7072 32.2969 18.2196 32.5092 18.7539 32.5092H20.7686C21.3029 32.5092 21.8153 32.2969 22.1931 31.9191C22.571 31.5413 22.7832 31.0288 22.7832 30.4945V28.4799C22.7832 27.9455 22.571 27.4331 22.1931 27.0553C21.8153 26.6775 21.3029 26.4652 20.7686 26.4652H18.7539C18.2196 26.4652 17.7072 26.6775 17.3293 27.0553C16.9515 27.4331 16.7393 27.9455 16.7393 28.4799Z" fill="#00FFFF"/>
<path fill-rule="evenodd" clip-rule="evenodd" d="M16.7404 26.4661C17.2745 25.932 17.9989 25.6319 18.7542 25.6319H20.7689C21.5242 25.6319 22.2486 25.932 22.7827 26.4661C23.3168 27.0002 23.6169 27.7245 23.6169 28.4799V30.4945C23.6169 31.2499 23.3168 31.9743 22.7827 32.5084C22.2486 33.0425 21.5242 33.3425 20.7689 33.3425H18.7542C17.9989 33.3425 17.2745 33.0425 16.7404 32.5084C16.2063 31.9743 15.9062 31.2499 15.9062 30.4945V28.4799C15.9062 27.7245 16.2063 27.0002 16.7404 26.4661ZM18.7542 27.2986C18.4409 27.2986 18.1405 27.423 17.9189 27.6446C17.6974 27.8661 17.5729 28.1666 17.5729 28.4799V30.4945C17.5729 30.8078 17.6974 31.1083 17.9189 31.3299C18.1405 31.5514 18.4409 31.6759 18.7542 31.6759H20.7689C21.0822 31.6759 21.3827 31.5514 21.6042 31.3299C21.8257 31.1083 21.9502 30.8078 21.9502 30.4945V28.4799C21.9502 28.1666 21.8257 27.8661 21.6042 27.6446C21.3827 27.423 21.0822 27.2986 20.7689 27.2986H18.7542Z" fill="#00FFFF"/>
<path d="M6.66602 28.4799V30.4945C6.66602 31.0288 6.87827 31.5413 7.25609 31.9191C7.63391 32.2969 8.14635 32.5092 8.68067 32.5092H10.6953C11.2296 32.5092 11.7421 32.2969 12.1199 31.9191C12.4977 31.5413 12.71 31.0288 12.71 30.4945V28.4799C12.71 27.9455 12.4977 27.4331 12.1199 27.0553C11.7421 26.6775 11.2296 26.4652 10.6953 26.4652H8.68067C8.14635 26.4652 7.63391 26.6775 7.25609 27.0553C6.87827 27.4331 6.66602 27.9455 6.66602 28.4799Z" fill="#00FFFF"/>
<path fill-rule="evenodd" clip-rule="evenodd" d="M6.66716 26.4661C7.20126 25.932 7.92566 25.6319 8.68099 25.6319H10.6956C11.451 25.6319 12.1754 25.932 12.7095 26.4661C13.2436 27.0002 13.5436 27.7245 13.5436 28.4799V30.4945C13.5436 31.2499 13.2436 31.9743 12.7095 32.5084C12.1754 33.0425 11.451 33.3425 10.6956 33.3425H8.68099C7.92566 33.3425 7.20126 33.0425 6.66716 32.5084C6.13306 31.9743 5.83301 31.2499 5.83301 30.4945V28.4799C5.83301 27.7245 6.13306 27.0002 6.66716 26.4661ZM8.68099 27.2986C8.36769 27.2986 8.06722 27.423 7.84567 27.6446C7.62413 27.8661 7.49967 28.1666 7.49967 28.4799V30.4945C7.49967 30.8078 7.62413 31.1083 7.84567 31.3299C8.06722 31.5514 8.36769 31.6759 8.68099 31.6759H10.6956C11.0089 31.6759 11.3094 31.5514 11.531 31.3299C11.7525 31.1083 11.877 30.8078 11.877 30.4945V28.4799C11.877 28.1666 11.7525 27.8661 11.531 27.6446C11.3094 27.423 11.0089 27.2986 10.6956 27.2986H8.68099Z" fill="#00FFFF"/>
<path d="M26.8125 28.4799V30.4945C26.8125 31.0288 27.0248 31.5413 27.4026 31.9191C27.7804 32.2969 28.2928 32.5092 28.8272 32.5092H30.8418C31.3761 32.5092 31.8886 32.2969 32.2664 31.9191C32.6442 31.5413 32.8565 31.0288 32.8565 30.4945V28.4799C32.8565 27.9455 32.6442 27.4331 32.2664 27.0553C31.8886 26.6775 31.3761 26.4652 30.8418 26.4652H28.8272C28.2928 26.4652 27.7804 26.6775 27.4026 27.0553C27.0248 27.4331 26.8125 27.9455 26.8125 28.4799Z" fill="#00FFFF"/>
<path fill-rule="evenodd" clip-rule="evenodd" d="M26.8136 26.4661C27.3477 25.932 28.0721 25.6319 28.8275 25.6319H30.8421C31.5975 25.6319 32.3219 25.932 32.856 26.4661C33.3901 27.0002 33.6901 27.7245 33.6901 28.4799V30.4945C33.6901 31.2499 33.3901 31.9743 32.856 32.5084C32.3219 33.0425 31.5975 33.3425 30.8421 33.3425H28.8275C28.0721 33.3425 27.3477 33.0425 26.8136 32.5084C26.2795 31.9743 25.9795 31.2499 25.9795 30.4945V28.4799C25.9795 27.7245 26.2795 27.0002 26.8136 26.4661ZM28.8275 27.2986C28.5142 27.2986 28.2137 27.423 27.9922 27.6446C27.7706 27.8661 27.6462 28.1666 27.6462 28.4799V30.4945C27.6462 30.8078 27.7706 31.1083 27.9922 31.3299C28.2137 31.5514 28.5142 31.6759 28.8275 31.6759H30.8421C31.1554 31.6759 31.4559 31.5514 31.6774 31.3299C31.899 31.1083 32.0234 30.8078 32.0234 30.4945V28.4799C32.0234 28.1666 31.899 27.8661 31.6774 27.6446C31.4559 27.423 31.1554 27.2986 30.8421 27.2986H28.8275Z" fill="#00FFFF"/>
</svg>
