<svg width="40" height="40" viewBox="0 0 40 40" fill="none" xmlns="http://www.w3.org/2000/svg">
<path fill-rule="evenodd" clip-rule="evenodd" d="M10.4765 11.9048C10.4765 12.41 10.2758 12.8945 9.91862 13.2517C9.56141 13.6089 9.07693 13.8096 8.57175 13.8096C8.06658 13.8096 7.5821 13.6089 7.22488 13.2517C6.86767 12.8945 6.66699 12.41 6.66699 11.9048C6.66699 11.3996 6.86767 10.9152 7.22488 10.558C7.5821 10.2007 8.06658 10.0001 8.57175 10.0001C9.07693 10.0001 9.56141 10.2007 9.91862 10.558C10.2758 10.9152 10.4765 11.3996 10.4765 11.9048ZM8.57175 22.381C9.07693 22.381 9.56141 22.1803 9.91862 21.8231C10.2758 21.4659 10.4765 20.9814 10.4765 20.4763C10.4765 19.9711 10.2758 19.4866 9.91862 19.1294C9.56141 18.7722 9.07693 18.5715 8.57175 18.5715C8.06658 18.5715 7.5821 18.7722 7.22488 19.1294C6.86767 19.4866 6.66699 19.9711 6.66699 20.4763C6.66699 20.9814 6.86767 21.4659 7.22488 21.8231C7.5821 22.1803 8.06658 22.381 8.57175 22.381ZM8.57175 30.9524C9.07693 30.9524 9.56141 30.7518 9.91862 30.3946C10.2758 30.0373 10.4765 29.5529 10.4765 29.0477C10.4765 28.5425 10.2758 28.058 9.91862 27.7008C9.56141 27.3436 9.07693 27.1429 8.57175 27.1429C8.06658 27.1429 7.5821 27.3436 7.22488 27.7008C6.86767 28.058 6.66699 28.5425 6.66699 29.0477C6.66699 29.5529 6.86767 30.0373 7.22488 30.3946C7.5821 30.7518 8.06658 30.9524 8.57175 30.9524ZM15.7146 10.4763C15.3357 10.4763 14.9724 10.6268 14.7045 10.8947C14.4365 11.1626 14.286 11.5259 14.286 11.9048C14.286 12.2837 14.4365 12.6471 14.7045 12.915C14.9724 13.1829 15.3357 13.3334 15.7146 13.3334H31.9051C32.284 13.3334 32.6473 13.1829 32.9152 12.915C33.1831 12.6471 33.3337 12.2837 33.3337 11.9048C33.3337 11.5259 33.1831 11.1626 32.9152 10.8947C32.6473 10.6268 32.284 10.4763 31.9051 10.4763H15.7146ZM14.286 20.4763C14.286 20.0974 14.4365 19.734 14.7045 19.4661C14.9724 19.1982 15.3357 19.0477 15.7146 19.0477H31.9051C32.284 19.0477 32.6473 19.1982 32.9152 19.4661C33.1831 19.734 33.3337 20.0974 33.3337 20.4763C33.3337 20.8551 33.1831 21.2185 32.9152 21.4864C32.6473 21.7543 32.284 21.9048 31.9051 21.9048H15.7146C15.3357 21.9048 14.9724 21.7543 14.7045 21.4864C14.4365 21.2185 14.286 20.8551 14.286 20.4763ZM15.7146 27.6191C15.3357 27.6191 14.9724 27.7696 14.7045 28.0375C14.4365 28.3054 14.286 28.6688 14.286 29.0477C14.286 29.4266 14.4365 29.7899 14.7045 30.0578C14.9724 30.3257 15.3357 30.4763 15.7146 30.4763H31.9051C32.284 30.4763 32.6473 30.3257 32.9152 30.0578C33.1831 29.7899 33.3337 29.4266 33.3337 29.0477C33.3337 28.6688 33.1831 28.3054 32.9152 28.0375C32.6473 27.7696 32.284 27.6191 31.9051 27.6191H15.7146Z" fill="#00FFFF"/>
</svg>
