<svg width="40" height="40" viewBox="0 0 40 40" fill="#ffffff" xmlns="http://www.w3.org/2000/svg">
<path fill-rule="evenodd" clip-rule="evenodd" d="M21.9051 14.0476C21.9051 15.5632 21.303 17.0166 20.2314 18.0882C19.1598 19.1599 17.7063 19.7619 16.1908 19.7619C14.6753 19.7619 13.2218 19.1599 12.1502 18.0882C11.0786 17.0166 10.4765 15.5632 10.4765 14.0476C10.4765 12.5321 11.0786 11.0787 12.1502 10.007C13.2218 8.93538 14.6753 8.33334 16.1908 8.33334C17.7063 8.33334 19.1598 8.93538 20.2314 10.007C21.303 11.0787 21.9051 12.5321 21.9051 14.0476ZM16.1908 21.6667C13.6649 21.6667 11.2425 22.6701 9.45645 24.4561C7.67039 26.2422 6.66699 28.6646 6.66699 31.1905C6.66699 31.4431 6.76733 31.6853 6.94594 31.8639C7.12454 32.0425 7.36679 32.1429 7.61937 32.1429H24.7622C25.0148 32.1429 25.2571 32.0425 25.4357 31.8639C25.6143 31.6853 25.7146 31.4431 25.7146 31.1905C25.7146 28.6646 24.7112 26.2422 22.9252 24.4561C21.1391 22.6701 18.7167 21.6667 16.1908 21.6667ZM32.3813 32.1429H27.9584C28.0479 31.8419 28.0956 31.5219 28.0956 31.1905C28.097 29.3453 27.6689 27.5251 26.845 25.874C26.0211 24.223 24.8242 22.7864 23.3489 21.6781C24.6369 21.6157 25.9241 21.8155 27.1325 22.2654C28.341 22.7152 29.4455 23.4058 30.3791 24.2953C31.3127 25.1847 32.056 26.2545 32.5639 27.4397C33.0717 28.625 33.3336 29.901 33.3337 31.1905C33.3337 31.4431 33.2333 31.6853 33.0547 31.8639C32.8761 32.0425 32.6339 32.1429 32.3813 32.1429ZM23.8098 19.7619C23.2499 19.7627 22.6928 19.6812 22.1565 19.52C23.5287 18.0282 24.2889 16.0745 24.286 14.0476C24.2889 12.0207 23.5287 10.0671 22.1565 8.57525C22.9421 8.3391 23.7694 8.27486 24.582 8.3869C25.3946 8.49894 26.1736 8.78463 26.866 9.22456C27.5584 9.66449 28.1479 10.2483 28.5946 10.9364C29.0412 11.6245 29.3345 12.4007 29.4544 13.2122C29.5743 14.0237 29.5181 14.8515 29.2896 15.6394C29.0611 16.4272 28.6657 17.1566 28.1302 17.778C27.5946 18.3994 26.9316 18.8983 26.1861 19.2406C25.4406 19.5829 24.6302 19.7607 23.8098 19.7619Z" fill="#B6B3C5"/>
</svg>
