<svg width="56" height="56" viewBox="0 0 56 56" fill="none" xmlns="http://www.w3.org/2000/svg">
<path fill-rule="evenodd" clip-rule="evenodd" d="M32.3137 13.3508H13.3647C12.2954 13.3508 11.27 13.7756 10.5139 14.5317C9.75778 15.2878 9.33301 16.3133 9.33301 17.3825V22.7581C9.33352 23.0552 9.43245 23.3437 9.61432 23.5786C9.7962 23.8135 10.0508 23.9815 10.3382 24.0563C11.208 24.2866 11.9772 24.798 12.526 25.5109C13.0748 26.2239 13.3723 27.0983 13.3723 27.998C13.3723 28.8977 13.0748 29.7721 12.526 30.4851C11.9772 31.198 11.208 31.7095 10.3382 31.9397C10.0508 32.0151 9.79652 32.1838 9.61512 32.4191C9.43373 32.6545 9.33546 32.9434 9.3357 33.2406V38.6135C9.3357 39.6827 9.76046 40.7082 10.5166 41.4643C11.2726 42.2204 12.2981 42.6452 13.3674 42.6452H32.3164V38.0356C32.3164 37.5901 32.4934 37.1628 32.8084 36.8477C33.1235 36.5327 33.5507 36.3557 33.9963 36.3557C34.4418 36.3557 34.8691 36.5327 35.1841 36.8477C35.4992 37.1628 35.6761 37.5901 35.6761 38.0356V42.6452H42.6322C43.7015 42.6452 44.7269 42.2204 45.483 41.4643C46.2391 40.7082 46.6639 39.6827 46.6639 38.6135V33.2298C46.6642 32.9345 46.5672 32.6473 46.3879 32.4127C46.2086 32.178 45.9571 32.009 45.6721 31.9316C44.8104 31.6953 44.0501 31.1825 43.5083 30.4721C42.9664 29.7616 42.6729 28.8929 42.6729 27.9993C42.6729 27.1058 42.9664 26.2371 43.5083 25.5266C44.0501 24.8162 44.8104 24.3034 45.6721 24.0671C45.9576 23.9902 46.2097 23.8214 46.3895 23.5867C46.5693 23.352 46.6667 23.0645 46.6666 22.7689V17.3852C46.6666 16.3159 46.2418 15.2905 45.4857 14.5344C44.7296 13.7783 43.7041 13.3535 42.6349 13.3535H35.6735V17.9846C35.6735 18.4301 35.4965 18.8574 35.1814 19.1725C34.8664 19.4875 34.4391 19.6645 33.9936 19.6645C33.548 19.6645 33.1208 19.4875 32.8057 19.1725C32.4907 18.8574 32.3137 18.4301 32.3137 17.9846V13.3535V13.3508ZM33.9936 23.6075C34.9236 23.6075 35.6735 24.3601 35.6735 25.2874V30.706C35.6735 31.1515 35.4965 31.5788 35.1814 31.8938C34.8664 32.2089 34.4391 32.3858 33.9936 32.3858C33.548 32.3858 33.1208 32.2089 32.8057 31.8938C32.4907 31.5788 32.3137 31.1515 32.3137 30.706V25.2874C32.3137 24.3601 33.0663 23.6075 33.9936 23.6075Z" fill="#B6B3C5"/>
</svg>
