<svg width="80" height="60" viewBox="0 0 80 60" fill="none" xmlns="http://www.w3.org/2000/svg">
<path fill-rule="evenodd" clip-rule="evenodd" d="M57.3341 45.2682H57.3677L57.369 45.2655L64.2633 18.2148L58.7476 22.0725L52.4216 45.2937L57.3341 45.2682Z" fill="url(#paint0_radial_1601_175109)"/>
<path fill-rule="evenodd" clip-rule="evenodd" d="M32.3272 23.9351L26.5333 45.3221H31.302L34.8896 32.1018L40.2548 37.8796L48.9389 31.9796L45.3204 45.3221H45.5502V45.3248L45.5999 45.3221H48.3504L50.0313 45.3262L56.0482 23.7617L41.5716 33.5812L32.3272 23.9351Z" fill="url(#paint1_radial_1601_175109)"/>
<path fill-rule="evenodd" clip-rule="evenodd" d="M32.3272 23.9351L26.5333 45.3221H31.302L34.8896 32.1018L40.2548 37.8796L48.9389 31.9796L45.3204 45.3221H45.5502V45.3248L45.5999 45.3221H48.3504L50.0313 45.3262L56.0482 23.7617L41.5716 33.5812L32.3272 23.9351Z" fill="url(#paint2_linear_1601_175109)"/>
<path fill-rule="evenodd" clip-rule="evenodd" d="M26.6624 44.8451L32.3272 23.9337L41.5716 33.5798L56.0483 23.7604L54.3727 29.7679L57.1487 27.9392L58.7477 22.0714L64.2634 18.2137L62.6269 24.6337L64.1748 23.6139L66.1688 15.6836L41.7127 31.9271L31.7347 21.7072L25.1736 45.7481L25.6694 45.4471L26.6624 44.8451Z" fill="url(#paint3_radial_1601_175109)"/>
<path fill-rule="evenodd" clip-rule="evenodd" d="M48.5302 33.5143L48.9387 31.9785L40.2546 37.8785L34.8893 32.1008L31.3017 45.3211H27.9224L26.4511 46.2133L32.2826 46.1663L35.3851 34.2466L39.9993 39.2975L45.2436 35.7341L45.2382 35.726L45.8617 35.3148L47.3196 34.3246L48.5302 33.5143Z" fill="url(#paint4_radial_1601_175109)"/>
<path fill-rule="evenodd" clip-rule="evenodd" d="M62.2384 26.1586L57.369 45.2642L57.3676 45.2669H57.334L52.4216 45.2924L56.7267 29.4855L53.9386 31.3223L50.0312 45.3246L48.3503 45.3206H45.5998L45.5501 45.3233V45.3206H45.3204L48.087 35.1182L46.8992 35.9002L44.15 46.2222L58.503 46.1618L63.7917 25.1348L62.2384 26.1586Z" fill="url(#paint5_radial_1601_175109)"/>
<path fill-rule="evenodd" clip-rule="evenodd" d="M57.3341 45.2682H57.3677L57.369 45.2655L64.2633 18.2148L58.7476 22.0725L52.4216 45.2937L57.3341 45.2682Z" fill="url(#paint6_linear_1601_175109)"/>
<path d="M49.6215 8.66069C47.8908 9.39567 46.8414 10.7286 47.2741 11.6302C47.4716 12.0413 47.9432 12.2899 48.56 12.3732C48.0816 12.2765 47.7188 12.0561 47.5576 11.7108C47.1666 10.8724 48.1206 9.63082 49.6873 8.94286C51.2406 8.25625 52.8194 8.3718 53.2265 9.19681C53.5947 9.95464 52.8516 11.0564 51.5241 11.774C53.0653 11.0081 53.9454 9.78131 53.5208 8.94152C53.072 8.05738 51.3333 7.92974 49.6215 8.65935V8.66069Z" fill="url(#paint7_linear_1601_175109)"/>
<path d="M62.7169 5.07905C66.3556 4.86272 69.0899 5.59502 70.9186 6.66188C68.7943 4.68132 66.3233 3.75823 64.0942 3.3511C61.8718 2.94665 59.8616 3.05012 58.6765 3.14149C61.8919 2.01012 64.9689 1.67958 67.4426 1.77901C63.8738 1.25364 61.0212 1.30738 58.6685 1.64061C56.309 1.97384 54.4453 2.5973 52.8692 3.19792C55.0554 1.6218 57.7588 0.595243 60.1774 0C56.2243 0.661082 53.4765 1.45922 51.4046 2.31513C49.3139 3.17911 47.9138 4.10892 46.6695 5.02127C47.5174 3.38603 49.4429 1.96847 51.4234 0.93519C47.7579 2.49653 45.475 3.93425 43.997 5.17042C42.5015 6.42271 41.8216 7.47211 41.3486 8.24472C40.6351 6.92659 41.4454 5.39078 42.6923 4.10489C39.9042 6.3394 38.7446 8.15738 38.312 9.53195C37.8766 10.9186 38.1722 11.8431 38.2582 12.2878C35.8557 11.7409 35.1772 10.4403 35.3532 9.13691C34.2084 11.6979 34.9058 13.399 35.978 14.4807C37.057 15.5704 38.5054 16.0272 38.8212 16.1293C35.0361 16.863 32.5839 16.3363 31.3047 15.4105C32.5396 17.2849 35.4822 18.1032 38.1077 18.4472C40.7346 18.7925 43.0403 18.6621 43.0403 18.6621C39.3533 20.5742 35.7993 21.3374 33.1133 21.3938C33.4452 21.4422 34.68 21.7499 36.4953 21.8278C42.3833 22.0831 49.0021 20.1187 53.5155 16.3457C52.6126 17.9715 50.9101 19.2708 49.4187 20.3982C47.9151 21.5362 47.0296 22.2121 47.0296 22.2121C47.6854 22.1906 49.8177 21.551 52.9095 19.901C55.9596 18.2725 59.1791 15.7679 60.0981 12.4275C60.5348 14.4269 59.914 16.214 59.1777 17.5066C58.436 18.8099 57.5774 19.6014 57.5774 19.6014C57.5774 19.6014 58.7531 19.3111 60.2379 17.9379C62.3716 16.0178 63.2799 13.9674 63.5822 12.2945C63.8819 10.6418 63.6091 9.34249 63.3659 8.89102C66.2924 10.0533 67.4869 12.054 67.5971 14.1232C68.3778 10.7977 67.3123 8.6102 65.9807 7.21682C64.6612 5.83687 63.0609 5.22148 62.7156 5.07905H62.7169ZM57.0279 6.44018C59.1629 6.67263 61.0132 7.4748 61.943 8.85743C62.8808 10.2535 62.897 12.2623 61.3034 14.9147C61.8435 11.053 59.0622 8.96358 58.0571 8.33743C59.1616 9.33443 59.5566 10.8219 58.909 12.5821C58.2533 14.3638 55.1951 17.7122 51.6854 19.557C51.6854 19.557 57.0977 14.6191 56.6987 10.8931C56.6946 10.8944 56.6946 10.8985 56.6946 10.8985C56.6946 10.8985 56.6342 11.6563 55.8132 12.8589C55.2166 13.7322 54.2142 14.8502 52.536 16.0957C49.0935 18.6514 44.5076 20.0649 40.314 20.6911C46.4895 18.9457 52.2296 14.3423 53.1326 13.2526C50.2921 15.4763 46.7327 17.3292 43.1102 17.8022C40.7977 18.1045 38.144 17.9379 36.2091 17.3346C38.1319 17.5321 44.912 16.8025 48.6219 14.4511C45.9574 15.4683 43.1075 15.9802 40.7628 15.7692C38.4181 15.5596 36.4174 14.0722 35.8047 12.2421C36.5276 13.0819 40.9939 14.7467 44.1314 13.9674C40.8595 13.8478 37.7543 11.6724 40.3248 7.60245C40.5035 10.576 42.05 11.5878 43.3897 12.2515C42.1253 11.5246 41.5932 10.3838 42.0164 8.98508C42.433 7.60379 44.1031 5.6716 46.5943 3.97053C45.3931 4.99574 43.7981 8.51748 44.1918 9.88265C44.1932 8.70022 44.9738 7.31356 46.5392 5.95512C48.0885 4.61011 50.4157 3.28794 53.5195 2.2063C51.7768 2.97084 47.8143 5.74819 46.8375 7.65485C47.9675 6.38643 49.7788 5.12473 52.0912 4.12639C54.3835 3.13745 57.1757 2.3971 60.3198 2.15927C58.3299 2.4804 53.1232 4.28629 50.5044 6.12845C52.4567 5.09114 54.8861 4.26748 57.4404 3.90603C59.9866 3.54593 62.6712 3.64402 65.1449 4.45156C63.3511 4.13445 57.3046 4.54427 54.7114 5.63398C57.0493 5.11264 59.0528 5.04546 61.1999 5.53589C63.3484 6.02768 65.1382 7.13217 66.021 9.06167C65.0589 7.97867 59.6104 5.82478 57.0265 6.44152L57.0279 6.44018Z" fill="url(#paint8_linear_1601_175109)"/>
<path d="M49.6215 8.68999C47.8908 9.42497 46.8414 10.7579 47.2741 11.6595C47.4716 12.0706 47.9432 12.3192 48.56 12.4025C48.0816 12.3058 47.7188 12.0854 47.5576 11.7401C47.1666 10.9017 48.1206 9.66011 49.6873 8.97216C51.2406 8.28554 52.8194 8.4011 53.2265 9.22611C53.5947 9.98393 52.8516 11.0857 51.5241 11.8033C53.0653 11.0374 53.9454 9.8106 53.5208 8.97081C53.072 8.08668 51.3333 7.95903 49.6215 8.68864V8.68999Z" fill="url(#paint9_linear_1601_175109)"/>
<path d="M61.2014 5.53483C59.0542 5.04439 57.0508 5.11158 54.7128 5.63292C57.3061 4.54321 63.3526 4.13205 65.1464 4.45049C62.6727 3.6443 59.9867 3.54621 57.4418 3.90497C54.8875 4.26641 52.4568 5.09008 50.5058 6.12739C53.1246 4.28522 58.3313 2.47934 60.3213 2.1582C57.1771 2.39738 54.385 3.13639 52.0927 4.12533C49.7802 5.12367 47.969 6.38537 46.839 7.65379C47.8158 5.74847 51.7783 2.96978 53.521 2.20523C50.4171 3.28688 48.0899 4.60905 46.5407 5.95405C44.9767 7.3125 44.196 8.69916 44.1933 9.88158C43.7983 8.51642 45.3945 4.99602 46.5958 3.96946C44.106 5.67054 42.4344 7.60273 42.0179 8.98401C41.596 10.3828 42.1267 11.5235 43.3911 12.2505C42.0515 11.5867 40.5049 10.5749 40.3262 7.60138C37.7558 11.6713 40.861 13.8467 44.1328 13.9663C40.9954 14.7456 36.529 13.0822 35.8062 12.2411C36.4189 14.0725 38.4196 15.5586 40.7643 15.7682C43.1076 15.9791 45.9575 15.4658 48.6234 14.45C44.9135 16.8014 38.1347 17.5311 36.2106 17.3335C38.1455 17.9382 40.7992 18.1035 43.1117 17.8011C46.7342 17.3282 50.2935 15.4753 53.134 13.2515C52.2311 14.3412 46.491 18.9446 40.3155 20.69C44.5077 20.0639 49.095 18.6503 52.5374 16.0947C54.2157 14.8491 55.2194 13.7312 55.8146 12.8578C56.6356 11.6552 56.6961 10.8974 56.6961 10.8974C56.6961 10.8974 56.6961 10.8947 56.7001 10.892C57.1005 14.618 51.6869 19.556 51.6869 19.556C55.1966 17.7111 58.2547 14.3627 58.9104 12.581C59.5581 10.8208 59.1644 9.33202 58.0586 8.33637C59.0623 8.96251 61.845 11.0519 61.3048 14.9136C62.8971 12.2599 62.8823 10.2524 61.9444 8.85637C61.0146 7.47374 59.163 6.67157 57.0293 6.43912C59.6145 5.82237 65.0617 7.97627 66.0238 9.05926C65.141 7.12842 63.3513 6.02527 61.2027 5.53349L61.2014 5.53483ZM51.5257 11.8044C51.4021 11.8715 51.2744 11.936 51.14 11.9965C50.2035 12.4157 49.2589 12.5434 48.5616 12.4036C47.9462 12.3217 47.4745 12.0718 47.2757 11.6606C46.843 10.7576 47.8924 9.42608 49.623 8.69109C51.3349 7.96149 53.0736 8.08779 53.5224 8.97327C53.947 9.81305 53.0669 11.0398 51.5257 11.8057V11.8044Z" fill="url(#paint10_linear_1601_175109)"/>
<path d="M61.2014 5.53483C59.0542 5.04439 57.0508 5.11158 54.7128 5.63292C57.3061 4.54321 63.3526 4.13205 65.1464 4.45049C62.6727 3.6443 59.9867 3.54621 57.4418 3.90497C54.8875 4.26641 52.4568 5.09008 50.5058 6.12739C53.1246 4.28522 58.3313 2.47934 60.3213 2.1582C57.1771 2.39738 54.385 3.13639 52.0927 4.12533C49.7802 5.12367 47.969 6.38537 46.839 7.65379C47.8158 5.74847 51.7783 2.96978 53.521 2.20523C50.4171 3.28688 48.0899 4.60905 46.5407 5.95405C44.9767 7.3125 44.196 8.69916 44.1933 9.88158C43.7983 8.51642 45.3945 4.99602 46.5958 3.96946C44.106 5.67054 42.4344 7.60273 42.0179 8.98401C41.596 10.3828 42.1267 11.5235 43.3911 12.2505C42.0515 11.5867 40.5049 10.5749 40.3262 7.60138C37.7558 11.6713 40.861 13.8467 44.1328 13.9663C40.9954 14.7456 36.529 13.0822 35.8062 12.2411C36.4189 14.0725 38.4196 15.5586 40.7643 15.7682C43.1076 15.9791 45.9575 15.4658 48.6234 14.45C44.9135 16.8014 38.1347 17.5311 36.2106 17.3335C38.1455 17.9382 40.7992 18.1035 43.1117 17.8011C46.7342 17.3282 50.2935 15.4753 53.134 13.2515C52.2311 14.3412 46.491 18.9446 40.3155 20.69C44.5077 20.0639 49.095 18.6503 52.5374 16.0947C54.2157 14.8491 55.2194 13.7312 55.8146 12.8578C56.6356 11.6552 56.6961 10.8974 56.6961 10.8974C56.6961 10.8974 56.6961 10.8947 56.7001 10.892C57.1005 14.618 51.6869 19.556 51.6869 19.556C55.1966 17.7111 58.2547 14.3627 58.9104 12.581C59.5581 10.8208 59.1644 9.33202 58.0586 8.33637C59.0623 8.96251 61.845 11.0519 61.3048 14.9136C62.8971 12.2599 62.8823 10.2524 61.9444 8.85637C61.0146 7.47374 59.163 6.67157 57.0293 6.43912C59.6145 5.82237 65.0617 7.97627 66.0238 9.05926C65.141 7.12842 63.3513 6.02527 61.2027 5.53349L61.2014 5.53483ZM51.5257 11.8044C51.4021 11.8715 51.2744 11.936 51.14 11.9965C50.2035 12.4157 49.2589 12.5434 48.5616 12.4036C47.9462 12.3217 47.4745 12.0718 47.2757 11.6606C46.843 10.7576 47.8924 9.42608 49.623 8.69109C51.3349 7.96149 53.0736 8.08779 53.5224 8.97327C53.947 9.81305 53.0669 11.0398 51.5257 11.8057V11.8044Z" fill="url(#paint11_radial_1601_175109)"/>
<path d="M48.5601 12.402C49.2588 12.5431 50.2034 12.4154 51.1386 11.9949C51.2729 11.9344 51.4006 11.8699 51.5242 11.8027C51.4261 11.8511 51.3253 11.8981 51.2232 11.9438C50.2705 12.355 49.3085 12.5028 48.5601 12.402Z" fill="white"/>
<path d="M48.5601 12.402C49.2588 12.5431 50.2034 12.4154 51.1386 11.9949C51.2729 11.9344 51.4006 11.8699 51.5242 11.8027C51.4261 11.8511 51.3253 11.8981 51.2232 11.9438C50.2705 12.355 49.3085 12.5028 48.5601 12.402Z" fill="url(#paint12_radial_1601_175109)"/>
<path fill-rule="evenodd" clip-rule="evenodd" d="M79.5986 47.6068H14.8233L14.8085 47.6176C7.94105 47.8446 2.0034 52.4937 0.137054 59.1059L0.122274 59.1166C0.115556 59.1435 0.112869 59.169 0.112869 59.1959C0.0739031 59.3357 0.0349353 59.4741 0 59.6138H65.2873C72.2515 59.6138 78.3181 54.8639 79.9883 48.1026C80.0501 47.85 79.8593 47.6055 79.5986 47.6055V47.6068Z" fill="url(#paint13_linear_1601_175109)"/>
<path fill-rule="evenodd" clip-rule="evenodd" d="M10.9899 53.4093C11.0504 53.1594 11.1296 52.9202 11.2264 52.6932C11.3245 52.4634 11.4427 52.2444 11.5798 52.0334L11.5865 52.024C11.6133 51.9877 11.6456 51.9447 11.6832 51.8964C12.4263 50.9356 13.4797 50.2571 14.6299 50.0233C15.7854 49.7882 17.0364 50.0018 18.1691 50.8241C18.2175 50.8604 18.2605 50.8927 18.2954 50.9195L18.5265 51.0982L17.0606 52.3183L16.9208 52.0778C16.8375 51.934 16.7193 51.8171 16.5755 51.7257C16.2597 51.5255 15.8244 51.4503 15.3581 51.4852C14.8771 51.5215 14.3692 51.6733 13.9298 51.9273C13.5657 52.1369 13.2486 52.4164 13.0336 52.7563C12.9584 52.8746 12.8952 52.9955 12.8428 53.1191C12.7891 53.2454 12.7461 53.3784 12.7125 53.5182C12.6789 53.6552 12.6587 53.7856 12.6507 53.9119C12.6426 54.0328 12.648 54.1497 12.6654 54.2612C12.6816 54.3714 12.7084 54.4708 12.7447 54.5609C12.781 54.6509 12.8253 54.7315 12.8804 54.8041L12.8845 54.8081C13.0699 55.0674 13.2889 55.2622 13.524 55.4006C13.9271 55.6385 14.3853 55.7164 14.814 55.6842C15.2439 55.6519 15.6403 55.5095 15.9238 55.3079C16.0609 55.2098 16.1697 55.0997 16.2382 54.9841L16.3834 54.7382L17.5846 55.8118L17.4516 55.9838C16.7865 56.8424 15.7787 57.2495 14.7508 57.2845C14.1072 57.306 13.4555 57.1823 12.8764 56.9297C12.2906 56.6758 11.7786 56.2915 11.4212 55.797C10.963 55.1615 10.7615 54.3512 10.9885 53.4093H10.9899Z" fill="#1D3B7D"/>
<path fill-rule="evenodd" clip-rule="evenodd" d="M22.7013 55.4115H19.9548L18.8289 56.9406H17.2635L21.9542 50.5703H22.9956C23.5438 52.6946 24.0947 54.8176 24.6442 56.9406H23.1125L22.7026 55.4115H22.7013ZM20.7879 54.1391H22.4635L22.0227 52.4729L20.7879 54.1391Z" fill="#1D3B7D"/>
<path fill-rule="evenodd" clip-rule="evenodd" d="M33.0553 50.5684H38.215L37.8912 51.9107H34.0819L33.8467 52.8875H36.1511L35.8273 54.2298H33.5229L33.1924 55.5977H37.2368L36.913 56.94H31.455C31.967 54.817 32.4789 52.6927 32.9922 50.5697H33.0553V50.5684Z" fill="#1D3B7D"/>
<path fill-rule="evenodd" clip-rule="evenodd" d="M49.3784 57.0878C48.8974 57.0878 48.4741 57.0045 48.1073 56.8378C47.9232 56.7545 47.758 56.6551 47.6088 56.5382C47.4597 56.4213 47.328 56.2883 47.2151 56.1391C47.1022 55.99 47.0082 55.8261 46.9329 55.6501C46.859 55.474 46.8039 55.2846 46.769 55.0817C46.7341 54.8788 46.722 54.6665 46.7327 54.4448C46.7448 54.2244 46.7784 53.9933 46.8375 53.7528C46.8953 53.5123 46.9719 53.2812 47.0673 53.0608C47.1627 52.8391 47.2756 52.6282 47.4086 52.4253C47.5403 52.2237 47.6854 52.0356 47.8413 51.8609C47.9985 51.6862 48.1678 51.5263 48.3505 51.3785C48.5319 51.2321 48.724 51.1018 48.9256 50.9862C49.1271 50.872 49.3381 50.7739 49.5598 50.6906C49.7815 50.6086 50.0072 50.5468 50.2384 50.5052C50.4695 50.4635 50.7046 50.4434 50.9438 50.4434C51.183 50.4434 51.4087 50.4635 51.621 50.5052C51.8333 50.5468 52.0321 50.61 52.2149 50.6933C52.399 50.7766 52.5656 50.876 52.7147 50.9929C52.8639 51.1098 52.9969 51.2428 53.1125 51.392C53.228 51.5411 53.3234 51.7051 53.3987 51.8838C53.4739 52.0611 53.529 52.2519 53.5639 52.4562C53.5989 52.6604 53.6096 52.874 53.5989 53.0971C53.5868 53.3188 53.5518 53.5499 53.494 53.7904C53.4363 54.0309 53.3597 54.2607 53.2656 54.4811C53.1716 54.7001 53.0574 54.911 52.9257 55.1126C52.794 55.3141 52.6489 55.5009 52.4917 55.6729C52.3345 55.8462 52.1625 56.0061 51.9784 56.1539C51.7943 56.3004 51.6022 56.4307 51.3993 56.5463C51.1964 56.6605 50.9854 56.7586 50.7637 56.8419C50.542 56.9238 50.3163 56.9857 50.0852 57.0273C49.8527 57.069 49.6189 57.0891 49.3798 57.0891L49.3784 57.0878ZM50.6549 51.7158C50.3781 51.7158 50.1053 51.7669 49.8393 51.869C49.5732 51.9711 49.3287 52.1108 49.1083 52.2909C48.888 52.4709 48.6958 52.6859 48.5359 52.9385C48.3747 53.1911 48.2578 53.4693 48.1852 53.7716C48.1127 54.0739 48.0952 54.3507 48.1342 54.6047C48.1731 54.8573 48.2591 55.0736 48.3935 55.2523C48.5279 55.431 48.7039 55.5708 48.9229 55.6689C49.1406 55.7669 49.3892 55.8167 49.666 55.8167C49.9428 55.8167 50.2236 55.7656 50.4869 55.6635C50.7503 55.5614 50.9921 55.4216 51.2125 55.2416C51.4329 55.0629 51.6237 54.8479 51.7836 54.598C51.9435 54.348 52.059 54.0726 52.1329 53.7703C52.2055 53.4679 52.2229 53.1898 52.184 52.9372C52.145 52.6846 52.059 52.4683 51.9247 52.2895C51.7903 52.1108 51.6156 51.9698 51.402 51.8676C51.1883 51.7655 50.9384 51.7145 50.6549 51.7145V51.7158Z" fill="#1D3B7D"/>
<path fill-rule="evenodd" clip-rule="evenodd" d="M58.3675 56.8667L58.0289 53.1367L55.8589 56.9406H54.8323C54.6442 54.8176 54.4561 52.6933 54.268 50.5703H55.6883L55.9946 54.1834L58.0759 50.5703H59.2194L59.5594 54.174L61.6071 50.5703H63.03C61.8207 52.6933 60.6128 54.8176 59.4021 56.9406H58.3756L58.3689 56.8667H58.3675Z" fill="#1D3B7D"/>
<path fill-rule="evenodd" clip-rule="evenodd" d="M64.4438 53.2543L63.5543 56.9387H62.1407L63.6779 50.5684H64.5419L66.896 54.2527L67.7855 50.5684H69.199C68.6871 52.6913 68.1751 54.8157 67.6619 56.9387H66.8073L64.4424 53.2543H64.4438Z" fill="#1D3B7D"/>
<path fill-rule="evenodd" clip-rule="evenodd" d="M20.7881 54.1394H22.4636L22.0229 52.4746L20.7881 54.1394Z" stroke="#1D3B7D" stroke-width="1.2" stroke-miterlimit="10"/>
<path d="M50.6549 51.7142C50.3781 51.7142 50.1053 51.7653 49.8393 51.8674C49.5733 51.9695 49.3287 52.1093 49.1083 52.2893C48.888 52.4694 48.6958 52.6844 48.5359 52.937C48.3747 53.1896 48.2578 53.4677 48.1852 53.77C48.1127 54.0724 48.0952 54.3492 48.1342 54.6031C48.1732 54.8557 48.2592 55.072 48.3935 55.2508C48.5279 55.4295 48.7039 55.5692 48.9229 55.6673C49.1406 55.7654 49.3892 55.8151 49.666 55.8151C49.9428 55.8151 50.2236 55.764 50.4869 55.6619C50.7503 55.5598 50.9922 55.4201 51.2125 55.24C51.4329 55.0613 51.6237 54.8463 51.7836 54.5964C51.9435 54.3465 52.059 54.071 52.1329 53.7687C52.2055 53.4664 52.223 53.1882 52.184 52.9356C52.145 52.683 52.059 52.4667 51.9247 52.288C51.7903 52.1093 51.6156 51.9682 51.402 51.8661C51.1883 51.764 50.9384 51.7129 50.6549 51.7129" stroke="#1D3B7D" stroke-width="1.2" stroke-miterlimit="10"/>
<path fill-rule="evenodd" clip-rule="evenodd" d="M43.544 56.9377H42.1453C42.5685 55.1829 42.9945 53.428 43.4164 51.6719H44.9078L44.8796 51.7915C44.4685 53.4979 44.0573 55.203 43.6448 56.9095L43.6381 56.939H43.5454L43.544 56.9377Z" fill="#1D3B7D"/>
<path fill-rule="evenodd" clip-rule="evenodd" d="M41.2144 50.6918L47.5148 50.5723C47.4127 51.0143 47.3106 51.4564 47.2085 51.8971C45.0949 51.971 42.9827 52.0449 40.8691 52.1175C40.9739 51.6418 41.08 51.1675 41.1848 50.6918H41.2144Z" fill="#1D3B7D"/>
<path fill-rule="evenodd" clip-rule="evenodd" d="M29.4063 54.4515H27.0576L26.457 56.9387H25.0435C25.5554 54.8157 26.0673 52.6913 26.5806 50.5684H30.2072C30.363 50.5684 30.5122 50.5791 30.6519 50.5993C30.7916 50.6208 30.9247 50.6517 31.0469 50.6933C31.1706 50.735 31.2834 50.7874 31.3829 50.8505C31.485 50.9137 31.5737 50.9862 31.6502 51.0682C31.7282 51.1515 31.7913 51.2442 31.8424 51.345C31.8921 51.4458 31.9297 51.556 31.9539 51.6755C31.9781 51.7951 31.9875 51.9201 31.9808 52.0531C31.9754 52.1848 31.9539 52.3232 31.919 52.4683C31.8854 52.6107 31.841 52.7464 31.786 52.8754C31.7309 53.0058 31.6664 53.1307 31.5925 53.2503C31.5186 53.3699 31.4339 53.4814 31.3412 53.5862C31.2485 53.691 31.1477 53.7878 31.0389 53.8765C30.9287 53.9651 30.8118 54.0458 30.6882 54.1143C30.5646 54.1842 30.4329 54.2446 30.2931 54.2943C30.1534 54.3454 30.0096 54.383 29.8618 54.4085C29.7127 54.4341 29.5595 54.4462 29.4036 54.4462L29.4063 54.4515ZM29.9129 51.9107H27.6717L27.3855 53.0985H29.5568C29.7073 53.0985 29.8363 53.085 29.9451 53.0582C30.0499 53.0326 30.1346 52.9937 30.2004 52.9426C30.2676 52.8916 30.3227 52.8284 30.3684 52.7545C30.4141 52.6793 30.449 52.5933 30.4719 52.4979C30.4947 52.4025 30.5014 52.3178 30.492 52.2439C30.4826 52.1754 30.4584 52.1149 30.4208 52.0652C30.3832 52.0168 30.3254 51.9792 30.2461 51.9537C30.1601 51.9255 30.0499 51.912 29.9156 51.912L29.9129 51.9107Z" fill="#1D3B7D"/>
<defs>
<radialGradient id="paint0_radial_1601_175109" cx="0" cy="0" r="1" gradientUnits="userSpaceOnUse" gradientTransform="translate(46.5015 30.942) scale(450.453 450.452)">
<stop stop-color="#C39566"/>
<stop offset="0.02" stop-color="#C39566"/>
<stop offset="0.44" stop-color="#F1D17F"/>
<stop offset="1" stop-color="#AC834C"/>
</radialGradient>
<radialGradient id="paint1_radial_1601_175109" cx="0" cy="0" r="1" gradientUnits="userSpaceOnUse" gradientTransform="translate(45.7182 30.8778) scale(77.6678 77.6678)">
<stop stop-color="#C39566"/>
<stop offset="0.02" stop-color="#C39566"/>
<stop offset="0.44" stop-color="#F1D17F"/>
<stop offset="1" stop-color="#AC834C"/>
</radialGradient>
<linearGradient id="paint2_linear_1601_175109" x1="41.3472" y1="45.3719" x2="41.2357" y2="23.8383" gradientUnits="userSpaceOnUse">
<stop stop-color="#1A3B73"/>
<stop offset="0.25" stop-color="#17427B"/>
<stop offset="0.65" stop-color="#105494"/>
<stop offset="1" stop-color="#096AAF"/>
</linearGradient>
<radialGradient id="paint3_radial_1601_175109" cx="0" cy="0" r="1" gradientUnits="userSpaceOnUse" gradientTransform="translate(45.6712 30.7152) scale(44.7547 44.7547)">
<stop stop-color="#C39566"/>
<stop offset="0.02" stop-color="#C39566"/>
<stop offset="0.44" stop-color="#F1D17F"/>
<stop offset="1" stop-color="#AC834C"/>
</radialGradient>
<radialGradient id="paint4_radial_1601_175109" cx="0" cy="0" r="1" gradientUnits="userSpaceOnUse" gradientTransform="translate(37.6949 39.0959) scale(21.3414 21.3414)">
<stop stop-color="#C39566"/>
<stop offset="0.02" stop-color="#C39566"/>
<stop offset="0.44" stop-color="#F1D17F"/>
<stop offset="1" stop-color="#AC834C"/>
</radialGradient>
<radialGradient id="paint5_radial_1601_175109" cx="0" cy="0" r="1" gradientUnits="userSpaceOnUse" gradientTransform="translate(53.9709 35.6785) scale(35.513 35.513)">
<stop stop-color="#C39566"/>
<stop offset="0.02" stop-color="#C39566"/>
<stop offset="0.44" stop-color="#F1D17F"/>
<stop offset="1" stop-color="#AC834C"/>
</radialGradient>
<linearGradient id="paint6_linear_1601_175109" x1="58.4117" y1="45.201" x2="58.2719" y2="18.3062" gradientUnits="userSpaceOnUse">
<stop stop-color="#1A3B73"/>
<stop offset="0.25" stop-color="#17427B"/>
<stop offset="0.65" stop-color="#105494"/>
<stop offset="1" stop-color="#096AAF"/>
</linearGradient>
<linearGradient id="paint7_linear_1601_175109" x1="60.6395" y1="1.07839" x2="26.935" y2="31.4264" gradientUnits="userSpaceOnUse">
<stop stop-color="#1C4178"/>
<stop offset="0.43" stop-color="#0D5D9B"/>
<stop offset="0.78" stop-color="#036EB1"/>
<stop offset="1" stop-color="#0075B9"/>
</linearGradient>
<linearGradient id="paint8_linear_1601_175109" x1="61.7696" y1="2.36216" x2="28.0638" y2="32.7102" gradientUnits="userSpaceOnUse">
<stop stop-color="#1F3062"/>
<stop offset="1" stop-color="#1D4178"/>
</linearGradient>
<linearGradient id="paint9_linear_1601_175109" x1="60.6395" y1="1.10769" x2="26.935" y2="31.4557" gradientUnits="userSpaceOnUse">
<stop stop-color="#1F3062"/>
<stop offset="1" stop-color="#1D4178"/>
</linearGradient>
<linearGradient id="paint10_linear_1601_175109" x1="61.2887" y1="1.82901" x2="27.5843" y2="32.177" gradientUnits="userSpaceOnUse">
<stop stop-color="#1C4178"/>
<stop offset="0.43" stop-color="#0D5D9B"/>
<stop offset="0.78" stop-color="#036EB1"/>
<stop offset="1" stop-color="#0075B9"/>
</linearGradient>
<radialGradient id="paint11_radial_1601_175109" cx="0" cy="0" r="1" gradientUnits="userSpaceOnUse" gradientTransform="translate(50.9361 11.4622) rotate(5.51) scale(16.98 16.98)">
<stop stop-color="#FECC1B"/>
<stop offset="0.35" stop-color="#FECC1B"/>
<stop offset="0.74" stop-color="#DB1723"/>
<stop offset="1" stop-color="#DB1723"/>
</radialGradient>
<radialGradient id="paint12_radial_1601_175109" cx="0" cy="0" r="1" gradientUnits="userSpaceOnUse" gradientTransform="translate(50.9359 11.4619) rotate(5.51) scale(16.98 16.98)">
<stop stop-color="#FECC1B"/>
<stop offset="0.35" stop-color="#FECC1B"/>
<stop offset="0.74" stop-color="#DB1723"/>
<stop offset="1" stop-color="#DB1723"/>
</radialGradient>
<linearGradient id="paint13_linear_1601_175109" x1="90.4554" y1="53.6103" x2="-18.9201" y2="53.6103" gradientUnits="userSpaceOnUse">
<stop stop-color="#C39566"/>
<stop offset="0.04" stop-color="#C39566"/>
<stop offset="0.43" stop-color="#F1D17F"/>
<stop offset="0.89" stop-color="#AC834C"/>
<stop offset="1" stop-color="#AC834C"/>
</linearGradient>
</defs>
</svg>
