<svg width="90" height="90" viewBox="0 0 90 90" fill="none" xmlns="http://www.w3.org/2000/svg">
<path d="M43.9087 40.7755C43.9087 40.8824 43.9385 40.9698 43.9971 41.0366C44.0567 41.1034 44.1482 41.1373 44.2736 41.1373H44.6025C44.7269 41.1373 44.8194 41.1034 44.879 41.0366C44.9376 40.9698 44.9674 40.8824 44.9674 40.7755V36.7256L44.692 36.2754H46.3736L46.0981 36.7256V41.1692C46.0981 41.4159 46.0385 41.5989 45.9203 41.7202C45.8011 41.8404 45.5996 41.9011 45.3149 41.9011H43.6065C43.3218 41.9011 43.1203 41.8404 43.0011 41.7202C42.8818 41.5999 42.8232 41.4159 42.8232 41.1692V39.1926L43.9087 39.7312V40.7755Z" fill="#F17226"/>
<path d="M46.8713 38.0582C46.8713 37.8496 46.9217 37.6944 47.0224 37.5926C47.1232 37.4908 47.2959 37.4395 47.5384 37.4395H49.2201C49.4637 37.4395 49.6354 37.4908 49.7361 37.5926C49.8368 37.6944 49.8872 37.8496 49.8872 38.0582V41.2807C49.8872 41.4894 49.8368 41.6446 49.7361 41.7463C49.6354 41.8481 49.4627 41.8995 49.2201 41.8995H47.5384C47.2959 41.8995 47.1232 41.8481 47.0224 41.7463C46.9217 41.6446 46.8713 41.4894 46.8713 41.2807V38.0582ZM48.848 38.4273C48.848 38.3368 48.8254 38.2659 48.7812 38.2145C48.737 38.1641 48.6609 38.1384 48.554 38.1384H48.1984C48.0976 38.1384 48.0246 38.1641 47.9804 38.2145C47.9362 38.2659 47.9136 38.3368 47.9136 38.4273V40.9096C47.9136 41.0011 47.9362 41.072 47.9804 41.1224C48.0246 41.1738 48.0976 41.1985 48.1984 41.1985H48.554C48.6609 41.1985 48.7359 41.1728 48.7812 41.1224C48.8254 41.072 48.848 41.0011 48.848 40.9096V38.4273Z" fill="#F17226"/>
<path d="M51.6506 37.4401H52.9324C53.175 37.4401 53.3476 37.4915 53.4484 37.5922C53.5491 37.694 53.5995 37.8492 53.5995 38.0589V41.2814C53.5995 41.49 53.5491 41.6452 53.4484 41.747C53.3476 41.8488 53.175 41.9001 52.9324 41.9001H50.6093V36.8624L50.3513 36.4523L51.6506 36.1953V37.4401ZM52.5582 38.5245C52.5582 38.4012 52.5284 38.3066 52.4688 38.2388C52.4092 38.172 52.3115 38.138 52.1748 38.138H51.6496V41.1991H52.1748C52.3115 41.1991 52.4092 41.1652 52.4688 41.0984C52.5284 41.0316 52.5582 40.936 52.5582 40.8126V38.5245Z" fill="#F17226"/>
<path d="M54.4714 41.7463C54.3706 41.6446 54.3203 41.4894 54.3203 41.2807V37.8496L54.0623 37.4395H55.3523V40.814C55.3523 40.9374 55.3831 41.032 55.4458 41.0998C55.5085 41.1666 55.6072 41.2005 55.7439 41.2005H56.2774V37.8496L56.0194 37.4395H57.3186V41.4894L57.5766 41.8995H54.9874C54.7448 41.8995 54.5721 41.8481 54.4714 41.7463Z" fill="#F17226"/>
<path d="M59.1433 41.4894L59.4013 41.8995H57.844L58.102 41.4894V37.8496L57.844 37.4395H60.1753V38.5239L59.5256 38.1384H59.4362C59.3293 38.1384 59.2543 38.1641 59.209 38.2145C59.1648 38.2659 59.1422 38.3368 59.1422 38.4273V41.4894H59.1433Z" fill="#F17226"/>
<path d="M63.5662 42.3651C63.5662 42.617 63.5014 42.7969 63.3709 42.9038C63.2403 43.0107 63.0296 43.0641 62.7387 43.0641H60.6562V42.14L61.2431 42.3651H62.2042C62.4231 42.3651 62.5331 42.2716 62.5331 42.0835V41.8502H61.2513C61.0087 41.8502 60.8361 41.7998 60.7353 41.697C60.6346 41.5952 60.5842 41.44 60.5842 41.2314V38.0582C60.5842 37.8547 60.6346 37.7005 60.7353 37.5957C60.8361 37.4908 61.0087 37.4395 61.2513 37.4395H63.8324L63.5651 37.8496V42.3651H63.5662ZM62.0089 38.1384C61.8722 38.1384 61.7745 38.1723 61.7149 38.2392C61.6553 38.306 61.6255 38.4016 61.6255 38.5249V40.7668C61.6255 40.885 61.6553 40.9785 61.7149 41.0484C61.7735 41.1183 61.8722 41.1532 62.0089 41.1532H62.5341V38.1405H62.0089V38.1384Z" fill="#F17226"/>
<path fill-rule="evenodd" clip-rule="evenodd" d="M32.9706 41.9099C32.0178 42.6027 31.8214 44.1384 30.994 44.9422C31.3363 42.3632 32.0383 38.8786 33.9923 36.8752C31.3897 37.4282 29.8417 40.0484 29.5107 40.1655C29.3185 39.6588 30.515 37.8476 30.9744 37.5197C31.8564 36.1536 32.9264 35.2059 34.4313 34.4124C33.9821 34.3507 32.9716 34.5625 32.7774 34.1544C34.202 33.8296 35.8395 33.6908 37.186 32.999C37.4224 32.8767 37.5766 32.5909 37.9035 32.6907C37.2056 33.549 36.1869 34.1328 34.7242 34.3384C33.9841 35.1926 32.6674 35.9512 32.0219 37.0356C32.763 36.718 33.5442 36.1968 34.5546 35.8874C35.4807 35.5112 36.6978 35.7065 37.3988 35.0086C37.6291 35.7075 35.747 36.3448 35.4972 36.5525C33.6912 38.0491 32.2007 40.3382 31.6703 42.9563C32.4042 42.281 32.9901 40.4883 34.2843 40.4636C31.9304 43.8547 32.7034 47.441 33.207 51.3933C33.0827 51.3028 33.1053 51.0099 32.9788 51.0654C32.3261 48.4278 31.7526 44.345 32.9706 41.9099Z" fill="#F17226"/>
<path fill-rule="evenodd" clip-rule="evenodd" d="M32.2669 34.5441C28.7792 34.4958 25.6081 34.9399 22.3271 35.8598C20.8284 36.1877 19.2824 37.4767 17.7694 37.0265C17.7519 36.8302 18.015 36.8692 18.2011 36.8425C18.9679 36.0706 20.2703 36.0983 21.218 35.6029C21.2776 35.5885 21.2457 35.6974 21.2745 35.6974C21.3763 35.7046 21.6908 35.5525 21.9005 35.5001C25.3584 34.5709 28.6168 34.2008 32.2669 34.5441Z" fill="#F17226"/>
<path fill-rule="evenodd" clip-rule="evenodd" d="M17.2966 37.3111C17.2585 37.5548 16.9563 37.5722 16.8916 37.7901C16.7466 37.8138 16.3858 37.7799 16.1474 37.7552C16.1453 37.6822 16.1412 37.6144 16.0857 37.6092C16.3016 37.2412 16.946 37.0963 17.2966 37.3111Z" fill="#F17226"/>
<path fill-rule="evenodd" clip-rule="evenodd" d="M15.9036 37.8236C15.9611 38.0394 15.7566 38.0343 15.6815 38.1412C15.7093 38.2142 15.8398 38.1689 15.7967 38.3283C15.368 38.3714 14.816 38.5349 14.6865 38.0733C14.9569 37.8667 15.5099 37.5131 15.9036 37.8236Z" fill="#F17226"/>
<path fill-rule="evenodd" clip-rule="evenodd" d="M18.9069 38.8105C19.1649 38.8136 19.4095 38.8332 19.5165 39.0079C18.9747 39.0511 18.6869 39.3101 18.322 39.5033C18.1154 39.4016 17.8821 39.3337 17.8379 39.047C18.2264 38.975 18.6777 39.0254 18.874 39.012C18.9737 38.9904 18.7918 38.8876 18.9069 38.8105Z" fill="#F17226"/>
<path fill-rule="evenodd" clip-rule="evenodd" d="M17.7139 39.356C17.6008 39.5966 17.3469 39.7148 17.2154 39.944C16.8905 39.8679 16.5082 39.9358 16.3889 39.5154C16.8905 39.4588 17.1753 39.318 17.7139 39.356Z" fill="#F17226"/>
<path fill-rule="evenodd" clip-rule="evenodd" d="M30.3116 42.0822C27.1241 41.2239 23.9026 40.1971 20.4952 40.0696C20.1498 40.085 19.6996 40.3564 19.348 39.9658C19.3367 39.8332 19.3264 39.7047 19.3162 39.5721C23.4164 39.3419 27.1477 40.7275 30.3116 42.0822Z" fill="#F17226"/>
<path fill-rule="evenodd" clip-rule="evenodd" d="M31.4535 53.5179C31.1852 50.5956 30.8296 46.6711 29.6516 44.2617C31.8657 45.121 31.6694 51.713 31.4535 53.5179Z" fill="#F17226"/>
<path fill-rule="evenodd" clip-rule="evenodd" d="M69.6999 25.7151C64.3004 23.5843 56.2036 21.8553 49.4215 24.7139C49.7196 24.2976 54.6638 20.8459 63.0905 22.9932C65.2501 22.3724 66.7026 21.9735 68.3606 20.8778C64.2551 21.9458 60.2679 20.1274 56.1717 20.0987C49.7412 19.4233 43.2151 22.432 41.2066 25.2937C41.0976 24.9894 43.2058 20.5448 51.2985 19.263C53.7911 19.0595 56.4041 18.2813 58.2296 16.8598C56.2468 17.3634 53.2731 17.4837 51.3386 17.9247C52.4878 17.1219 54.5405 17.3645 55.3104 16.2605C54.0974 16.9554 52.4497 16.9934 51.1649 16.9996C40.9064 17.0386 37.1669 23.9934 35.9653 24.7869C36.3631 24.1311 39.1374 18.4181 46.3594 16.9975C46.8857 16.5617 47.559 16.1176 47.8242 15.541C46.4797 17.3819 38.0735 17.9175 34.8202 21.7104C34.702 22.2182 34.1202 22.7671 33.8602 23.2759C33.5446 23.8248 33.3627 24.4796 32.9053 24.8887C34.3094 17.0067 46.6894 17.423 50.3436 13C49.069 15.21 47.377 16.7148 47.377 16.7148C50.9644 16.133 54.8386 16.4465 57.4772 14.3496C57.0773 15.6499 56.2334 16.1659 55.3114 16.9029C56.7618 16.6532 59.8475 16.1073 61.267 14.6796C60.3018 17.0982 57.693 18.2053 55.3474 19.1273C62.3998 18.8847 66.8156 22.0815 71.5892 18.3009C71.5892 18.3009 69.7431 22.3035 64.3548 23.3355C65.1391 23.463 68.0913 24.3552 68.6083 24.5207C69.4851 24.7992 71.029 25.5918 74.0777 25.4036C76.9795 25.2289 78.3065 24.2113 79.2923 24.3809C76.4943 25.8271 73.3788 29.2891 69.8983 29.3138C69.1911 29.508 68.45 29.6355 67.6883 29.544C71.9212 31.3428 76.2404 37.8104 82.818 37.1094C80.609 39.5866 75.7398 38.8907 74.6544 38.3747C76.7523 39.7798 78.0485 41.258 80.9297 41.4101C79.3087 42.144 76.2764 41.5221 74.6595 40.8488C77.8481 45.1619 79.431 51.5051 84 54.4829C82.5466 54.6422 80.6203 53.9258 79.4064 53.3789C80.3263 56.6723 80.5967 59.461 81.7325 62.3926C81.9288 62.8078 82.4705 63.6569 82.3852 64.0886C82.2968 63.845 81.9463 63.1378 81.6986 62.9795C80.3448 61.5065 79.6839 59.8886 78.1143 58.7322C78.9058 62.3535 80.4209 65.0312 82.4253 67.7777C80.0005 66.5864 72.689 50.5563 80.2626 60.1374C79.318 57.6427 79.1196 53.9361 77.6291 51.6438C77.8974 51.5318 78.1924 51.8772 78.4566 52.0694C78.7423 52.276 79.911 53.1065 80.3787 53.1497C77.5561 49.5438 76.2692 43.7424 72.9296 40.2506C72.4238 39.7089 71.0536 38.5433 71.0382 38.3264C72.944 39.3121 76.9538 40.8735 77.2272 40.7358C74.4745 38.9462 68.231 34.4101 67.9443 33.8293C71.0136 35.6939 73.6131 38.8969 78.0238 37.8001C75.3379 37.0497 73.6121 34.6928 71.6046 33.1828C66.1979 28.8975 59.5669 26.7882 52.4754 26.9362C55.0739 26.2517 58.3735 26.6382 60.9093 27.1315C63.109 27.5746 65.1237 28.2869 66.8609 29.1164C69.8798 29.1185 72.9121 28.1307 74.9237 26.6207C71.9284 26.632 69.6999 25.7151 69.6999 25.7151Z" fill="#F17226"/>
<path fill-rule="evenodd" clip-rule="evenodd" d="M29.1296 22.329C28.7914 23.0516 28.3309 23.9182 28.9291 24.7251C30.4237 21.8449 29.92 20.4305 33.5362 18.1558C33.0078 19.048 31.8782 19.8271 31.7055 21.1778C32.4887 20.1499 33.2268 19.0408 34.23 18.1486C35.223 17.2636 36.4482 16.6406 37.3507 15.7618C37.176 16.6078 36.2252 17.1844 35.6917 17.8782C38.2193 16.1226 42.3247 15.6826 44.3445 13.5508C43.0093 16.1801 40.7222 17.9111 37.768 18.4497C39.0529 17.5884 40.8044 17.2502 42.1088 15.8646C38.8751 16.9243 35.7184 18.2555 33.824 21.0503C33.7099 20.0738 34.5178 18.7982 35.0122 18.0324C33.3255 19.3964 31.7774 21.5057 31.4989 24.0631C31.0168 23.5399 31.1669 22.2447 31.2861 21.4574C31.1288 21.6917 30.6231 24.6274 29.4729 25.9133C28.8109 26.6585 25.1043 26.8292 22.5942 28.9076C22.034 29.3701 21.8233 30.6673 21.2826 31.0425C20.9239 31.2964 20.4027 31.2234 19.8672 31.2594C18.4107 31.356 16.9058 32.0797 15.7453 32.8855C12.6061 32.4764 8.64562 34.3184 6.72962 36.402C6.99276 37.4751 7.97749 37.6992 8.71141 38.2173C8.64356 38.3139 8.57059 38.4033 8.4863 38.4845C8.90774 39.6049 8.844 41.2979 9.88732 41.6854C9.49364 40.7366 8.91185 39.5854 9.03006 38.4886C9.66221 39.8434 9.96956 42.0688 12.0387 41.3585C12.1518 41.2002 11.8856 41.1406 11.9493 40.8723C12.5691 41.4613 13.044 42.0153 14.0298 42.0852C14.003 41.6977 13.6309 41.5322 13.7193 41.3184C13.9002 41.1632 14.0904 41.4551 14.1408 41.633C14.5293 41.8889 15.1152 41.9208 15.7453 41.894C15.7957 41.8694 15.5726 41.709 15.5233 41.6175C16.2305 41.6278 17.0898 41.9156 17.725 41.2855C17.2265 40.8487 16.064 41.1961 15.6446 40.6657C16.4823 40.5485 18.1013 40.4231 18.9585 40.6421C18.7899 40.8158 18.4374 40.7212 18.1311 40.8086C18.2349 41.0101 18.4744 41.0512 18.6543 41.1591C20.3626 40.4427 21.8058 44.3713 21.8993 45.6932C22.1944 45.4701 22.0114 45.099 22.3269 44.8678C23.0372 45.615 22.7823 47.2288 23.3343 48.1005C23.5419 48.1097 23.472 47.7356 23.6632 47.8733C23.7197 48.3462 23.4689 48.7902 23.5378 49.371C23.6817 49.4707 23.7547 49.1294 23.9664 49.1366C23.8626 49.5498 24.1535 50.0802 24.0312 50.515C24.2512 50.6589 24.1977 50.1275 24.4568 50.2837C24.5051 51.8986 25.2195 53.5525 25.6882 55.0326C25.5597 55.4736 25.165 55.6884 25.0344 56.1253C24.8823 56.1818 24.8751 56.0647 24.8258 55.9927C24.2142 57.183 23.3435 58.1533 22.4606 59.1103C22.3485 59.0795 22.1933 59.1041 22.1543 58.9849C21.259 59.9254 20.9023 61.1137 20.1529 62.3174C18.8886 63.6146 17.0559 63.8726 15.4678 63.1489C15.2879 63.2137 14.9466 63.1572 14.7678 63.0574C13.9321 64.4328 14.7082 66.8761 15.6045 67.7909C15.5439 67.1382 15.0227 66.3262 15.2375 65.7413C16.2027 67.3263 17.3149 66.9593 17.5359 69.0193C17.9049 67.4229 16.9038 66.2645 16.8246 64.6199C16.9531 64.4626 17.1011 64.3156 17.3499 64.3824C17.6695 64.7216 17.6531 65.0701 17.7507 65.6323C17.9954 67.0375 18.4549 68.495 19.3317 69.2146C18.8619 68.4477 18.8845 67.7035 18.7211 66.5934C18.8249 66.5297 18.9102 66.4495 19.1065 66.4618C19.3193 66.8391 19.4386 67.3345 19.6996 67.6501C19.677 67.0632 19.3265 65.9489 19.714 65.4237C20.2969 65.9345 20.5384 67.4311 21.7534 67.3356C21.3361 65.8554 21.7441 64.5983 21.4769 62.8036C22.0905 62.5908 22.0874 63.2671 22.1974 63.7328C22.3341 64.3094 22.6733 64.9477 22.7895 65.5162C22.8779 64.737 23.0537 61.8096 23.9294 61.9072C23.8318 62.6648 23.6961 63.4809 24.1104 64.1213C24.3406 63.4635 24.5924 62.083 25.0704 61.3686C25.3171 60.9996 26.1394 60.2914 26.3368 61.1157C25.9133 58.0033 25.8598 54.1815 27.7758 51.5429C24.8679 59.1792 28.9518 62.7028 29.2776 69.782C28.9209 68.0921 28.4512 66.9008 27.9095 65.7875C27.5785 66.3375 27.6813 68.383 27.634 68.4344C28.078 71.5325 28.7842 74.7015 27.1293 77.3349C28.9764 72.7958 25.2904 68.8579 27.5055 64.4842C26.9998 63.5539 26.6164 62.4757 25.717 62.008C24.9635 62.6062 24.538 63.7184 24.6685 64.9159C24.1134 64.7494 23.5954 64.0072 23.4104 63.4337C23.1143 64.3793 23.0598 65.8965 23.3086 67.0097C22.77 66.9336 22.401 65.6971 22.22 65.2181C21.998 66.2295 22.2642 67.6028 22.9098 68.1795C23.0393 68.2936 23.3302 68.2411 23.2839 68.4961C22.7453 68.3727 22.4102 68.015 22.0751 67.6552C21.259 67.757 20.5446 67.3602 19.9453 67.0395C20.0656 67.7426 20.4654 68.1137 20.6772 68.7088C20.4305 68.6996 20.3431 68.494 20.2465 68.3008C19.8004 68.1445 19.308 68.0397 19.1456 67.5494C19.1703 69.194 20.7645 70.227 19.567 72.0711C19.8631 70.2496 18.8239 69.4068 18.0303 68.4354C17.7425 69.4561 17.6562 70.6454 16.9315 71.2981C17.2152 69.3872 17.429 68.8342 15.9149 67.3726C16.1112 68.0109 15.9982 68.6585 15.7021 69.0213C15.512 69.0912 15.7032 68.3706 15.5737 68.6348C15.5644 67.9256 14.3207 67.0241 13.9979 66.3405C13.191 64.6414 14.1449 63.3524 14.3063 61.6626C14.1654 60.8495 13.3205 60.24 13.2917 58.9757C13.2671 57.956 13.5991 56.5971 14.298 56.1695C13.9691 57.3742 14.6578 60.1845 15.7155 60.7539C15.3085 59.0641 15.1543 56.0061 16.5399 54.5516C16.4422 55.4407 16.506 57.0864 17.0209 57.9724C18.8413 56.2044 19.1477 55.3061 20.9249 54.2864C21.0061 52.7158 20.9013 51.547 20.4993 49.7184C20.375 49.6238 20.3267 49.7544 20.1488 49.6989C19.8826 48.3606 19.343 47.3409 18.7817 46.3448C18.646 46.4261 18.6645 46.6409 18.3562 46.5792C18.1907 45.3015 17.6315 44.4874 17.169 43.5592C16.6632 43.7874 16.3117 43.1645 16.0187 42.8109C13.6217 43.9344 14.5386 48.2578 15.4452 50.2837C13.8067 48.8159 12.6842 46.8208 12.677 44.325C12.6092 44.3209 12.5465 44.5378 12.4859 44.3898C11.7581 45.5667 12.0541 47.2268 12.4859 48.597C11.0242 46.9307 11.0108 45.2142 10.5585 43.2118C9.22433 42.5961 8.54078 41.708 8.29819 39.8352C8.23446 39.3253 8.35576 38.946 7.99702 38.5729C7.77191 38.6079 7.19115 38.8535 7.03593 37.7136C5.39232 36.2139 5.74592 35.3823 7.80275 34.4315C9.69614 33.4745 11.755 32.496 13.9794 32.4878C15.809 32.2164 17.0035 31.0322 18.3521 30.8904C18.9339 30.8277 19.493 31.1371 19.8703 30.7146C21.3546 28.261 22.144 27.9146 24.7805 26.8518C27.8139 25.8085 27.2711 23.102 29.1296 22.329ZM27.9927 25.938C28.5632 25.5402 28.5005 24.5616 28.1726 23.9428C28.1654 24.65 28.2096 25.4055 27.9927 25.938ZM14.8798 42.8089C15.1604 42.5015 15.7813 42.7606 15.9869 42.4193C15.3753 42.5108 15.0124 42.3124 14.5365 42.2435C14.6136 42.4758 14.9744 42.5344 14.8798 42.8089ZM13.1509 45.2769C13.3102 46.314 13.7666 47.3933 14.1572 47.8672C13.5939 46.0714 13.8704 43.9015 14.7349 42.8685C13.9383 42.5755 13.7615 42.631 13.0697 42.4656C12.7254 43.0001 12.0038 42.776 11.5392 43.1337C10.8813 43.6435 11.2041 45.3982 11.5474 46.2503C11.5741 45.613 11.8033 44.804 11.9143 44.0927C11.6923 43.9755 11.754 43.4081 11.8383 43.1594C12.1477 43.1183 12.1415 43.4503 12.1826 43.7237C12.5311 43.7124 12.6082 43.6106 12.822 43.6703C12.9093 43.3629 12.8662 42.9487 13.1972 42.8479C13.1858 43.5264 13.008 44.3168 13.1509 45.2769ZM16.0342 42.4162C16.2264 42.5396 16.6807 42.6095 16.8668 42.8932C17.5359 42.1829 18.1568 42.7914 18.6317 43.291C18.8455 43.183 18.9852 43.0114 19.2988 42.9867C19.4057 43.0772 19.3029 43.2221 19.2792 43.3362C19.3594 43.2848 19.5228 43.3002 19.5629 43.2139C19.1929 42.3823 18.1948 42.2281 17.1659 42.3227C17.0723 42.3422 17.1998 42.4008 17.1237 42.4234C16.8544 42.261 16.4515 42.3073 16.0342 42.4162ZM19.8507 59.2779C19.9474 59.0363 20.7861 56.8335 22.7998 55.4212C23.0198 54.9206 23.7054 54.5742 23.7794 54.1024C23.6242 54.0931 23.6807 54.2617 23.4946 54.2257C23.6067 54.0757 23.3034 54.0921 23.1791 54.052C21.8377 54.6061 20.8591 55.7111 19.9659 56.4964C20.1519 55.6812 20.8529 55.3122 21.2641 54.8055C19.4458 55.5733 18.3418 57.3249 17.3468 58.9376C17.7795 59.7795 18.1547 60.682 18.9143 61.1363C19.2309 60.4281 19.6811 59.7034 19.8507 59.2779ZM16.6293 61.6204C17.1042 61.8507 17.6438 61.6852 18.1002 61.4519C17.2152 60.2431 16.2367 58.6858 16.0115 56.5252C15.5685 58.066 15.8779 60.4322 16.6293 61.6204ZM15.3496 61.1343C14.5807 60.2605 14.2261 58.9006 13.8673 57.5459C13.5662 58.9006 13.8838 61.0818 15.3496 61.1343ZM16.176 62.157C15.8738 62.1549 15.587 61.8435 15.3218 61.9792C15.4791 62.1642 15.844 62.2649 16.176 62.157Z" fill="#F17226"/>
<path fill-rule="evenodd" clip-rule="evenodd" d="M28.9354 28.3708C29.0433 28.3461 29.1749 28.3584 29.1831 28.3625C29.2715 28.2094 29.473 28.1539 29.7073 28.123C28.4297 28.8744 26.9557 29.0512 25.6399 29.8437C25.4734 30.2261 24.6275 30.7452 24.9276 31.3866C25.0921 31.5665 25.4457 31.5274 25.5988 31.7279C26.5568 31.8111 29.1996 32.174 29.4339 32.6489C28.1367 32.4854 26.2896 32.5194 25.5104 33.6634C24.7056 33.3746 24.2009 33.1731 23.4701 32.9418C23.3642 32.984 22.9643 32.9829 22.9571 32.7363C23.2244 32.5893 23.9563 32.8123 24.3088 32.9223C24.3726 32.6571 24.3818 32.3436 24.4897 32.1144C24.353 31.8276 24.0714 31.7104 23.983 31.365C24.1814 30.9868 24.5257 30.7277 24.7416 30.3618C22.3825 31.6785 20.116 33.0991 18.3953 35.0429C18.1712 35.0223 18.162 35.1796 18.0129 35.2227C16.8853 34.7499 19.2978 33.279 19.4335 33.2255C17.8012 33.0919 16.3241 33.8752 15.1893 34.5649C14.9663 34.4672 14.5037 34.6543 14.4297 34.3809C15.8862 33.4383 17.7149 32.8185 19.71 32.9562C22.0269 31.3866 27.6629 28.6668 28.9354 28.3708ZM24.9574 32.3724C25.0222 32.3693 25.09 32.3631 25.1558 32.358C25.1311 32.2459 25.1486 32.1689 25.1846 32.1082C25.0088 32.1103 24.9328 32.1997 24.9574 32.3724ZM24.7262 32.542C24.6696 32.6951 24.5884 32.8247 24.6182 33.0456C24.83 33.0837 24.9492 33.2327 25.1815 33.2461C25.6934 32.8617 26.3029 32.5769 26.9485 32.505C26.7367 32.2531 26.1991 32.3827 25.8877 32.248C25.9041 32.8452 25.015 32.9336 24.7262 32.542Z" fill="#F17226"/>
<path fill-rule="evenodd" clip-rule="evenodd" d="M17.4072 35.0242C17.1379 35.2647 16.5325 35.8146 16.1583 35.5237C15.853 35.8619 15.1479 36.6246 14.6648 35.9935C14.9207 35.4939 15.6043 35.424 16.0627 35.533C16.1337 35.2256 16.8758 34.9419 17.4072 35.0242Z" fill="#F17226"/>
<path fill-rule="evenodd" clip-rule="evenodd" d="M30.0538 47.9434C31.6111 50.2438 30.8278 55.7831 29.3477 57.9993C30.4105 54.9536 30.6932 51.2727 30.0538 47.9434Z" fill="#F17226"/>
<path fill-rule="evenodd" clip-rule="evenodd" d="M44.6756 28.3739C40.304 27.8065 38.7611 27.2216 35.4266 30.8696C35.0771 31.2787 34.5806 31.622 33.7984 31.547C33.6216 31.5295 33.4787 31.4843 33.3379 31.3363C36.9849 28.0347 39.6831 26.4229 44.6756 28.3739Z" fill="#F17226"/>
<path fill-rule="evenodd" clip-rule="evenodd" d="M14.2908 36.2732C14.2888 36.8766 13.3503 37.3474 12.7593 36.893C13.1221 36.5425 13.9876 36.1303 14.2908 36.2732Z" fill="#F17226"/>
<path fill-rule="evenodd" clip-rule="evenodd" d="M25.9473 49.1713C25.6985 49.0695 25.5937 48.7129 25.3459 48.4785C25.385 48.4847 25.3984 48.5237 25.4467 48.5206C24.3509 46.8246 23.6407 44.4974 22.1296 43.1005C22.0844 42.6143 22.0813 42.2217 21.5489 42.0603C21.6311 41.6738 21.1501 41.6368 20.9075 41.4703C20.9219 41.312 21.0771 41.277 21.2374 41.2441C21.8696 41.5751 22.4925 41.9195 22.9664 42.4365C23.9624 44.5725 25.2308 46.6889 25.9473 49.1713Z" fill="#F17226"/>
<path d="M38.2481 54.3708H40.2299L37.5029 46.4694C37.5553 46.0428 37.3137 45.2431 37.8236 44.9645L37.8071 44.9748C38.0764 44.4783 41.9454 44.8042 42.409 44.7168V46.8034L41.6792 46.2597H39.5761C39.7108 47.2526 43.1676 54.856 42.1726 55.6598C41.9321 56.1357 37.9325 55.8037 37.4895 55.8962V53.8415L38.1905 54.3708H38.2481Z" fill="#0D723E"/>
<path d="M38.4167 44.9375C37.5789 45.0495 37.7537 45.7876 37.7465 46.4351C37.767 46.5009 40.5619 54.5926 40.5619 54.5926H38.1001C38.1001 54.5926 37.878 54.424 37.729 54.3119V55.6729C38.6109 55.5434 41.892 55.9987 42.0883 55.3614C42.6382 54.8218 39.3531 46.6664 39.2431 46.0363H41.7625C41.7625 46.0363 42.0009 46.2142 42.1644 46.3344V44.9375H38.4167Z" fill="#0D723E"/>
<path d="M42.5334 44.7148H45.981L45.3571 45.422V54.3905H46.7232V45.4097L46.0694 44.7159H49.5283L48.8746 45.4097V55.1881L49.7277 55.8963C40.5445 55.8141 43.696 57.4269 43.1574 45.4231L42.5334 44.7148Z" fill="#0D723E"/>
<path d="M46.5977 44.9375C46.7509 45.1009 46.9637 45.3271 46.9637 45.3271V54.6121H45.1114V45.3435C45.1114 45.3435 45.318 45.1112 45.4712 44.9375H43.0422C43.1944 45.1112 43.401 45.3435 43.401 45.3435V55.234C43.9776 56.0501 47.2525 55.53 49.0986 55.6729C48.9074 55.5156 48.633 55.2874 48.633 55.2874V45.3271C48.633 45.3271 48.8468 45.1009 48.9999 44.9375H46.5977Z" fill="#0D723E"/>
<path d="M52.4108 50.099V55.1994L53.0327 55.8963H49.5872L50.2131 55.1994V45.422L49.5872 44.7148H52.8857C57.7559 44.7642 57.1957 49.9458 53.1385 50.7455L52.4108 50.099ZM52.456 46.3204V49.2777C54.9374 49.6169 55.0011 45.9514 52.456 46.3204Z" fill="#0D723E"/>
<path d="M52.9758 44.9385H50.0977C50.2488 45.1122 50.4554 45.3446 50.4554 45.3446V55.2792C50.4554 55.2792 50.2518 55.5084 50.1007 55.6739H52.5184C52.3724 55.5084 52.1678 55.2792 52.1678 55.2792V49.5754C52.1678 49.5754 53.022 50.3371 53.1885 50.482C57.6219 49.2732 56.4943 44.7309 52.9758 44.9385ZM52.212 46.1021C55.4253 45.6252 55.3482 49.9495 52.212 49.5014V46.1021Z" fill="#0D723E"/>
<path d="M59.2739 50.2593V54.3699H60.7387L61.4829 53.8189V55.8953H56.477L57.0999 55.1871V50.2789H56.3845L57.0999 48.7863V45.4333L56.477 44.7148H61.4829V46.7552L60.7387 46.2495H59.2739V48.7021H61.6803L60.8106 50.2593H59.2739Z" fill="#0D723E"/>
<path d="M56.9783 44.9375C57.1335 45.1164 57.3432 45.3559 57.3432 45.3559V48.8332C57.3432 48.8332 56.9444 49.6679 56.7532 50.0575H57.3432V55.2669C57.3432 55.2669 57.1356 55.5022 56.9814 55.6729H61.2389V54.2832C61.0662 54.4137 60.8226 54.5926 60.8226 54.5926H59.03V50.0369H60.6623C60.7527 49.8776 61.0796 49.2917 61.2831 48.9268H59.03V46.025H60.8185C60.8185 46.025 61.0621 46.1915 61.2389 46.3139V44.9375H56.9783Z" fill="#0D723E"/>
<path d="M66.8944 50.0621L69.0129 55.0453H68.9995C68.9759 55.1553 69.8393 55.8214 69.9113 55.8954H67.0486C67.4197 55.6045 64.6721 50.6593 64.5775 50.3324V55.1995L65.2025 55.8964H61.7446L62.3829 55.1995V45.4232L61.7446 44.716C62.3079 44.7324 65.3001 44.6728 65.7946 44.7715C68.6007 44.9041 69.644 48.6035 66.8944 50.0621ZM65.0514 49.2768C67.2901 49.1627 66.8985 45.9053 64.6258 46.3195V49.2768H65.0514Z" fill="#0D723E"/>
<path d="M68.2451 46.9162C67.1504 44.073 64.3432 45.1533 62.2617 44.9375C62.4138 45.1091 62.6256 45.3404 62.6256 45.3404V55.2802C62.6256 55.2802 62.4159 55.5074 62.2627 55.6728H64.6906C64.5406 55.5074 64.336 55.2781 64.336 55.2781V50.3329L64.8017 50.2425L67.2923 55.2576V55.6728H69.2936C68.9616 55.3861 68.8855 55.3748 68.7765 55.1353L68.7868 55.1291L66.5995 49.9803C68.7128 48.7952 68.2451 46.9162 68.2451 46.9162ZM64.3823 46.1011C67.6428 45.6231 67.5585 49.9413 64.3823 49.5003V46.1011Z" fill="#0D723E"/>
<path d="M65.7291 56.8125C59.1424 57.0171 57.6067 66.1725 68.7306 66.999C68.7306 66.999 68.634 63.5771 68.6268 63.3643C68.7213 63.2852 69.3093 62.8 69.3093 62.8L65.9851 62.4886C65.9851 62.4886 66.0324 64.4076 66.0447 64.8599C62.8017 64.4395 62.407 58.5661 65.688 58.3759C65.688 58.3759 67.6996 58.3934 67.8147 58.3955C67.9011 58.4458 68.6854 58.894 68.6854 58.894L68.6257 56.8146H65.7291V56.8125Z" fill="#0D723E"/>
<path d="M32.8238 57.855C32.4065 57.5271 31.9851 57.1858 31.5585 56.8333C33.9206 56.8312 36.2025 56.8312 38.4053 56.8312C38.0024 57.12 37.5953 57.4212 37.1883 57.7296C37.1564 59.0484 37.1256 60.3651 37.0948 61.6839C38.0055 60.2253 38.9203 58.8685 39.8279 57.6001C39.8362 57.3431 39.8423 57.0851 39.8506 56.8292C41.5856 56.8292 43.2714 56.8281 44.914 56.8281C44.5316 57.0707 43.7319 57.6001 43.7165 57.6083C43.7319 57.6001 41.5065 60.7629 40.3563 62.5648C41.3801 64.7388 42.3833 66.7299 43.3783 68.577C43.7504 68.7045 44.1194 68.8299 44.4895 68.9532C42.8315 69.4826 41.1488 70.0952 39.4497 70.7829C39.4857 69.0509 37.7074 67.031 37.0136 65.113C36.9673 67.0711 36.921 69.0313 36.8748 70.9905C37.2561 71.1303 37.6375 71.2608 38.0127 71.3873C35.8675 72.3144 33.7037 73.3629 31.5359 74.5481C31.9285 73.9796 32.3202 73.4297 32.72 72.8962C32.7375 70.3717 32.8156 59.5891 32.8238 57.855Z" fill="#0D723E"/>
<path d="M40.0671 57.0509C40.0589 57.2739 40.0445 57.6728 40.0445 57.6728C38.9375 59.229 37.8613 60.8541 36.8539 62.4864L36.969 57.6142C36.969 57.6142 37.3956 57.2976 37.7297 57.0499C37.6886 57.0509 33.1956 57.055 32.1873 57.055C32.5542 57.35 33.0456 57.7457 33.0456 57.7457C33.0486 57.867 32.9387 72.8384 32.9397 72.9617C32.9397 72.9617 32.5799 73.4664 32.2643 73.9043C33.9614 73.0049 35.6842 72.1692 37.409 71.4086C37.1047 71.3068 36.6442 71.1485 36.6442 71.1485L36.6535 70.9861L36.7912 65.1055L37.2127 65.015C38.0422 66.7419 38.8676 68.3835 39.6693 69.8883C39.7248 69.9664 39.6796 70.171 39.6827 70.4547C41.0519 69.9068 42.4313 69.4073 43.7994 68.9509C43.5558 68.8717 43.2218 68.7566 43.2218 68.7566C42.1671 66.7871 41.1361 64.7529 40.1 62.5471C41.6542 60.3042 43.2988 57.4261 44.1664 57.0488C43.3009 57.0488 40.4043 57.0488 40.0671 57.0509Z" fill="#0D723E"/>
<path d="M44.7351 68.8721C45.0846 68.5216 45.4361 68.1855 45.7846 67.8524C45.9038 64.4038 46.0231 60.9593 46.1392 57.5262C45.8123 57.2959 45.4834 57.0657 45.1535 56.8262H50.5407C50.221 57.0359 49.9065 57.2497 49.5837 57.4676C49.4943 60.6314 49.4028 63.7953 49.3134 66.9664C49.63 67.1103 49.9476 67.2521 50.2631 67.3919C48.4602 67.7877 46.6131 68.28 44.7351 68.8721Z" fill="#0D723E"/>
<path d="M45.8476 57.0488C46.0511 57.1938 46.3636 57.4137 46.3636 57.4137C46.3564 57.5659 46.01 67.8017 46.0038 67.9517C46.0038 67.9517 45.7283 68.2169 45.5464 68.3958C46.894 67.9918 48.2405 67.6321 49.5716 67.3278C49.4092 67.2538 49.0865 67.112 49.0865 67.112C49.1348 65.4683 49.3147 59.1067 49.364 57.349C49.364 57.349 49.6467 57.1609 49.8132 57.0488H45.8476Z" fill="#0D723E"/>
<path d="M53.835 56.8155C54.8125 57.9739 55.7798 59.0871 56.7522 60.1911C56.7429 59.2567 56.7645 58.3193 56.7943 57.386C56.5085 57.1979 56.2248 57.0036 55.937 56.8155H60.6941C60.4269 57.0098 60.1596 57.2051 59.8883 57.4004C59.9304 60.6177 59.9674 63.8309 60.0106 67.0441C59.9242 67.0544 59.843 67.0657 59.7536 67.077C58.1398 65.1651 56.5147 63.3457 54.8886 61.4626C54.8742 62.9736 54.8608 64.4898 54.8454 66.0039C55.1527 66.1601 55.4632 66.3143 55.7705 66.4746C54.0549 66.6669 52.2942 66.9567 50.4861 67.3442C50.8181 67.0657 51.1501 66.7923 51.4749 66.526C51.5417 63.4896 51.6096 60.4594 51.6754 57.4312C51.3701 57.2277 51.0617 57.0252 50.7503 56.8145H53.835V56.8155Z" fill="#0D723E"/>
<path d="M56.6707 57.0352C56.7704 57.102 57.0171 57.2695 57.0171 57.2695C56.9883 58.1422 56.9626 59.9266 56.9729 60.7777C55.9327 59.6028 54.9243 58.4485 53.7319 57.0352H51.485C51.6247 57.1297 51.9013 57.3137 51.9013 57.3137C51.9002 57.471 51.6967 66.4774 51.6946 66.6316C51.6946 66.6316 51.4408 66.8423 51.3071 66.9503C52.5612 66.7036 53.8039 66.5011 55.0261 66.3438C54.9068 66.2842 54.62 66.1382 54.62 66.1382V66.0036L54.6735 60.8764C56.2708 62.7184 58.2023 64.9099 59.7832 66.7694C59.776 66.278 59.665 57.2891 59.665 57.2891C59.665 57.2891 59.9034 57.1174 60.0124 57.0362H56.6707V57.0352Z" fill="#0D723E"/>
<path d="M70.4466 65.9889C71.1507 66.1637 71.8405 66.3579 72.5106 66.5738C70.0098 57.5704 66.1315 56.4356 74.5531 56.8273V59.0249C74.3208 58.8173 74.0915 58.6189 73.8572 58.4246C73.1387 58.3845 72.8159 58.3475 72.0707 58.3167C72.6278 60.2132 75.4885 66.5913 74.7895 68.6224C74.6199 68.7396 74.4379 68.7098 74.2252 68.6193C72.9352 68.0529 71.1189 67.5544 69.6664 67.1844C69.6531 66.5676 69.6377 65.9457 69.6202 65.3218C69.9029 65.5264 70.1403 65.8265 70.4466 65.9889Z" fill="#0D723E"/>
<path d="M69.9127 57.2488C69.5139 57.4102 69.7554 58.0362 69.7081 58.3867C70.9272 61.2309 71.9582 64.0268 72.8699 66.9367C72.025 66.6551 71.1626 66.4002 70.2714 66.1884C70.1923 66.1216 70.1059 66.0456 69.8705 65.842C69.8808 66.3128 69.8921 66.8011 69.8973 67.0015C71.3456 67.2801 73.2266 68.0767 74.6461 68.4375C74.7829 68.089 74.6616 67.5751 74.6914 67.1711C73.8536 64.0114 72.8782 61.0387 71.7249 58.0588C72.246 58.0896 73.4404 58.1606 73.9482 58.1965C74.0366 58.2685 74.0993 58.3219 74.3193 58.5131V57.0617C73.4949 57.1388 70.2447 56.8623 69.9127 57.2488Z" fill="#0D723E"/>
<path d="M66.2243 66.3247C60.2625 65.2053 60.797 61.0505 60.797 61.0505C61.2822 57.1013 65.732 57.0469 65.732 57.0469H68.3973L68.4405 58.4798L67.8792 58.1591L65.695 58.1395C61.5299 58.7809 62.9854 65.011 66.285 65.1436L66.2254 62.7435L68.7252 62.9799L68.3891 63.2554L68.4909 66.7173L66.2243 66.3247Z" fill="#0D723E"/>
<path d="M47.0254 31.9802L46.8352 32.6113L47.4982 32.7933L47.6884 32.1632L47.0254 31.9802ZM50.4729 30.5257L49.8377 30.2708L49.5704 30.8763L50.2088 31.1322L50.4729 30.5257ZM60.4692 32.5661L59.76 32.6987L59.9018 33.4039L60.6101 33.2713L60.4692 32.5661ZM58.1112 31.3378L57.9231 30.7025L57.2612 30.8824L57.4493 31.5146L58.1112 31.3378ZM58.1883 34.1378C56.4409 33.4717 57.2016 31.8312 57.2016 31.8312C57.2016 31.8312 56.9189 32.4376 55.965 32.34C54.0541 32.1457 53.9236 29.4526 53.9236 29.4526C53.6779 31.7654 51.212 33.0852 50.3866 31.5022C50.9489 33.1325 48.7399 34.6785 47.5547 32.9886L49.2991 35.9829C51.4094 33.2384 56.0894 33.1973 58.1452 35.9757L58.1544 35.9777L59.7189 33.6547C58.8935 34.442 58.1883 34.1378 58.1883 34.1378ZM53.7622 32.8632L53.2339 32.3153L53.8023 31.8116L54.3378 32.3585L53.7622 32.8632ZM54.53 28.4854L53.9185 27.8594L53.2647 28.4401L53.8743 29.063L54.53 28.4854Z" fill="#0D723E"/>
<rect x="1" y="1" width="88" height="88" rx="15" stroke="url(#paint0_linear_1601_175039)" stroke-width="2"/>
<defs>
<linearGradient id="paint0_linear_1601_175039" x1="-22.7344" y1="112.734" x2="87.6563" y2="2.34375" gradientUnits="userSpaceOnUse">
<stop offset="0.0971717" stop-color="#F36B22"/>
<stop offset="0.686159" stop-color="#FFCB05"/>
</linearGradient>
</defs>
</svg>
