<svg width="24" height="24" viewBox="0 0 24 24" fill="none" xmlns="http://www.w3.org/2000/svg">
<path d="M14.6729 4.66177C14.6729 4.33228 14.542 4.01629 14.309 3.78331C14.076 3.55032 13.76 3.41943 13.4305 3.41943C13.101 3.41943 12.785 3.55032 12.552 3.78331C12.3191 4.01629 12.1882 4.33228 12.1882 4.66177V15.321C12.1884 15.7862 12.0507 16.241 11.7924 16.6279C11.5342 17.0148 11.167 17.3165 10.7373 17.4947C10.3076 17.6728 9.83466 17.7196 9.37839 17.629C8.92211 17.5384 8.50295 17.3145 8.17393 16.9857C7.84491 16.6568 7.6208 16.2378 7.52996 15.7815C7.43912 15.3253 7.48562 14.8524 7.66358 14.4226C7.84154 13.9928 8.14297 13.6254 8.52974 13.367C8.91651 13.1085 9.37124 12.9705 9.83643 12.9705C10.1659 12.9705 10.4819 12.8396 10.7149 12.6067C10.9479 12.3737 11.0788 12.0577 11.0788 11.7282C11.0788 11.3987 10.9479 11.0827 10.7149 10.8497C10.4819 10.6167 10.1659 10.4859 9.83643 10.4859C8.87987 10.4859 7.9448 10.7695 7.14945 11.3009C6.35411 11.8324 5.73421 12.5877 5.36815 13.4715C5.0021 14.3552 4.90632 15.3276 5.09293 16.2658C5.27955 17.204 5.74017 18.0658 6.41656 18.7421C7.09294 19.4185 7.95471 19.8792 8.89289 20.0658C9.83106 20.2524 10.8035 20.1566 11.6872 19.7906C12.571 19.4245 13.3263 18.8046 13.8578 18.0093C14.3892 17.2139 14.6729 16.2788 14.6729 15.3223V9.80878C15.8336 10.7328 17.274 11.2348 18.7577 11.2325C19.0871 11.2325 19.4031 11.1016 19.6361 10.8686C19.8691 10.6356 20 10.3197 20 9.99016C20 9.66067 19.8691 9.34468 19.6361 9.1117C19.4031 8.87871 19.0871 8.74782 18.7577 8.74782C17.6743 8.74782 16.6353 8.31746 15.8693 7.55141C15.1032 6.78536 14.6729 5.74637 14.6729 4.66301V4.66177Z" fill="#B6B3C5"/>
</svg>
