<svg width="15" height="18" viewBox="0 0 15 18" fill="none" xmlns="http://www.w3.org/2000/svg">
<path d="M9.67285 1.66189C9.67285 1.33241 9.54196 1.01641 9.30898 0.783428C9.07599 0.550445 8.76 0.419556 8.43051 0.419556C8.10102 0.419556 7.78503 0.550445 7.55205 0.783428C7.31906 1.01641 7.18817 1.33241 7.18817 1.66189V12.3212C7.18842 12.7863 7.0507 13.2412 6.79244 13.6281C6.53417 14.015 6.16697 14.3166 5.73726 14.4948C5.30756 14.673 4.83466 14.7197 4.37839 14.6291C3.92211 14.5385 3.50295 14.3146 3.17393 13.9858C2.84491 13.6569 2.6208 13.2379 2.52996 12.7817C2.43912 12.3254 2.48562 11.8525 2.66358 11.4227C2.84154 10.9929 3.14297 10.6256 3.52974 10.3671C3.91651 10.1086 4.37124 9.97066 4.83643 9.97066C5.16592 9.97066 5.48191 9.83977 5.71489 9.60678C5.94788 9.3738 6.07876 9.05781 6.07876 8.72832C6.07876 8.39883 5.94788 8.08283 5.71489 7.84985C5.48191 7.61687 5.16592 7.48598 4.83643 7.48598C3.87987 7.48598 2.9448 7.76963 2.14945 8.30106C1.35411 8.8325 0.73421 9.58784 0.368153 10.4716C0.00209548 11.3553 -0.0936818 12.3278 0.0929327 13.2659C0.279547 14.2041 0.740172 15.0659 1.41656 15.7423C2.09294 16.4187 2.95471 16.8793 3.89289 17.0659C4.83106 17.2525 5.8035 17.1567 6.68725 16.7907C7.57099 16.4246 8.32633 15.8047 8.85777 15.0094C9.3892 14.214 9.67285 13.279 9.67285 12.3224V6.8089C10.8336 7.73293 12.274 8.23496 13.7577 8.23262C14.0871 8.23262 14.4031 8.10174 14.6361 7.86875C14.8691 7.63577 15 7.31977 15 6.99028C15 6.6608 14.8691 6.3448 14.6361 6.11182C14.4031 5.87884 14.0871 5.74795 13.7577 5.74795C12.6743 5.74795 11.6353 5.31758 10.8693 4.55153C10.1032 3.78548 9.67285 2.7465 9.67285 1.66314V1.66189Z" fill="#B6B3C5"/>
</svg>
