<svg width="24" height="24" viewBox="0 0 24 24" fill="none" xmlns="http://www.w3.org/2000/svg">
<path d="M20.6794 7.55828C20.4656 6.79923 19.8737 6.20392 19.1112 5.99348C17.7074 5.61818 12.0638 5.61818 12.0638 5.61818C12.0638 5.61818 6.43086 5.60918 5.01236 5.99348C4.25388 6.20449 3.65913 6.79923 3.44757 7.55828C3.18142 8.99703 3.04919 10.4532 3.05538 11.9162C3.05257 13.3696 3.18424 14.8235 3.44757 16.2533C3.65913 17.0123 4.25388 17.6076 5.01236 17.8214C6.41623 18.1967 12.0638 18.1967 12.0638 18.1967C12.0638 18.1967 17.6933 18.1967 19.1112 17.8214C19.8737 17.6076 20.4656 17.0129 20.6794 16.2533C20.9377 14.8235 21.0637 13.3696 21.0547 11.9162C21.0637 10.4532 20.9405 8.99703 20.6794 7.55828ZM10.261 14.6097V9.21084L14.9587 11.9162L10.261 14.6097Z" fill="#B6B3C5"/>
</svg>
