<svg width="19" height="14" viewBox="0 0 19 14" fill="none" xmlns="http://www.w3.org/2000/svg">
<path d="M17.6794 2.55831C17.4656 1.79926 16.8737 1.20395 16.1112 0.993515C14.7074 0.618213 9.06377 0.618213 9.06377 0.618213C9.06377 0.618213 3.43086 0.60921 2.01236 0.993515C1.25388 1.20452 0.659131 1.79926 0.447566 2.55831C0.181422 3.99706 0.049194 5.45326 0.0553834 6.9162C0.05257 8.36959 0.184235 9.82353 0.447566 11.2533C0.659131 12.0123 1.25388 12.6076 2.01236 12.8214C3.41623 13.1968 9.06377 13.1968 9.06377 13.1968C9.06377 13.1968 14.6933 13.1968 16.1112 12.8214C16.8737 12.6076 17.4656 12.0129 17.6794 11.2533C17.9377 9.82353 18.0637 8.36959 18.0547 6.9162C18.0637 5.45326 17.9405 3.99706 17.6794 2.55831ZM7.26097 9.60972V4.21088L11.9587 6.9162L7.26097 9.60972Z" fill="#B6B3C5"/>
</svg>
