<svg width="24" height="24" viewBox="0 0 24 24" fill="none" xmlns="http://www.w3.org/2000/svg">
<path d="M6.8252 19.1395V6.01447L18.1998 12.1395L6.8252 19.1395Z" fill="#0A003E"/>
<path d="M18.2705 11.7819L18.2755 11.7768L18.1793 11.7196L7.57678 5.40841L7.57677 5.40841C7.43973 5.32684 7.28353 5.28303 7.12405 5.28144C6.96458 5.27985 6.80753 5.32054 6.66889 5.39936C6.53025 5.47819 6.41496 5.59233 6.33476 5.73018C6.25456 5.86803 6.21231 6.02467 6.21231 6.18416V6.18416L6.21231 18.554L6.21231 18.5541C6.21249 18.7122 6.25414 18.8674 6.33308 19.0043C6.41203 19.1412 6.52552 19.255 6.6622 19.3343C6.79889 19.4137 6.95401 19.4558 7.11205 19.4564C7.27009 19.457 7.42553 19.4162 7.56284 19.3379L7.56293 19.3379L18.1654 13.2792L18.122 13.2033L18.1654 13.2792C18.3024 13.201 18.4165 13.0881 18.4963 12.952C18.5761 12.8159 18.6188 12.6612 18.6202 12.5034C18.6216 12.3456 18.5816 12.1902 18.5042 12.0527C18.445 11.9474 18.3654 11.8554 18.2705 11.7819ZM7.4743 17.935V6.81609L17.0044 12.489L7.4743 17.935Z" fill="#0A003E" stroke="#0A003E" stroke-width="0.174997"/>
</svg>
