<svg width="16" height="16" viewBox="0 0 16 16" fill="#6973ff" xmlns="http://www.w3.org/2000/svg">
<path d="M11.0064 10.1608C10.7469 10.1608 10.491 10.2205 10.2583 10.3353C10.0343 10.4458 9.83768 10.6044 9.68243 10.7998L6.15006 8.79494C6.26106 8.45484 6.26106 8.08823 6.15006 7.74813L9.68248 5.74327C9.93667 6.06164 10.2974 6.27791 10.6988 6.35174C11.1096 6.42733 11.5338 6.34832 11.8899 6.1299C12.2459 5.91149 12.5087 5.56911 12.6274 5.16865C12.7463 4.76819 12.7127 4.33794 12.5334 3.96069C12.354 3.58344 12.0415 3.28585 11.6559 3.12518C11.2704 2.96452 10.839 2.95212 10.4448 3.09039C10.0507 3.22865 9.72155 3.50781 9.52083 3.87413C9.32412 4.23314 9.26434 4.65102 9.35203 5.05031L5.7539 7.09248C5.52396 6.85534 5.22954 6.69047 4.90679 6.61846C4.57549 6.54454 4.22962 6.57187 3.91405 6.69691C3.59847 6.82195 3.32775 7.03893 3.13699 7.3197C2.94622 7.60048 2.84423 7.93209 2.84423 8.27154C2.84423 8.61098 2.94622 8.9426 3.13699 9.22337C3.32775 9.50414 3.59847 9.72112 3.91405 9.84616C4.22962 9.9712 4.57549 9.99853 4.90679 9.92461C5.22954 9.8526 5.52396 9.68773 5.7539 9.45059L9.35207 11.4928C9.27889 11.8277 9.30906 12.1772 9.43889 12.4949C9.57187 12.8203 9.80283 13.0963 10.0997 13.2846C10.3966 13.4728 10.7448 13.564 11.0958 13.5455C11.4469 13.5269 11.7835 13.3996 12.0589 13.1812C12.3344 12.9627 12.535 12.6639 12.633 12.3263C12.731 11.9887 12.7215 11.629 12.6058 11.297C12.4901 10.965 12.274 10.6773 11.9874 10.4737C11.7008 10.2701 11.3579 10.1607 11.0064 10.1608ZM11.0064 3.76064C11.1899 3.76064 11.3693 3.81507 11.5219 3.91703C11.6745 4.01899 11.7934 4.16392 11.8637 4.33348C11.9339 4.50304 11.9523 4.68962 11.9165 4.86962C11.8807 5.04963 11.7923 5.21497 11.6625 5.34474C11.5327 5.47452 11.3674 5.5629 11.1874 5.5987C11.0074 5.63451 10.8208 5.61613 10.6513 5.5459C10.4817 5.47566 10.3368 5.35673 10.2348 5.20413C10.1329 5.05154 10.0784 4.87214 10.0784 4.68863C10.0787 4.44259 10.1766 4.20672 10.3505 4.03274C10.5245 3.85878 10.7603 3.76093 11.0064 3.76064ZM4.53955 9.19948C4.35603 9.19947 4.17664 9.14505 4.02405 9.04309C3.87145 8.94113 3.75251 8.79621 3.68228 8.62665C3.61205 8.45709 3.59367 8.27051 3.62947 8.0905C3.66528 7.9105 3.75366 7.74515 3.88343 7.61538C4.01321 7.4856 4.17855 7.39723 4.35856 7.36142C4.53856 7.32562 4.72514 7.34399 4.8947 7.41423C5.06426 7.48446 5.20918 7.6034 5.31115 7.756C5.4131 7.90859 5.46753 8.08798 5.46753 8.2715C5.46726 8.51753 5.3694 8.75341 5.19543 8.92738C5.02146 9.10135 4.78558 9.19921 4.53955 9.19948ZM11.0063 12.7824C10.8228 12.7824 10.6434 12.728 10.4908 12.626C10.3382 12.5241 10.2193 12.3792 10.1491 12.2096C10.0788 12.04 10.0604 11.8535 10.0963 11.6735C10.1321 11.4934 10.2204 11.3281 10.3502 11.1983C10.48 11.0686 10.6453 10.9802 10.8253 10.9444C11.0053 10.9086 11.1919 10.9269 11.3615 10.9972C11.531 11.0674 11.676 11.1863 11.7779 11.3389C11.8799 11.4915 11.9343 11.6709 11.9343 11.8544C11.934 12.1005 11.8362 12.3364 11.6622 12.5103C11.4882 12.6843 11.2524 12.7822 11.0063 12.7824Z" fill="#0A003E" stroke="#0A003E" stroke-width="0.0666667"/>
</svg>
