<svg width="24" height="24" viewBox="0 0 24 24" fill="none" xmlns="http://www.w3.org/2000/svg">
<path fill-rule="evenodd" clip-rule="evenodd" d="M3 12C3 9.61305 3.94821 7.32387 5.63604 5.63604C7.32387 3.94821 9.61305 3 12 3C14.3869 3 16.6761 3.94821 18.364 5.63604C20.0518 7.32387 21 9.61305 21 12C21 14.3869 20.0518 16.6761 18.364 18.364C16.6761 20.0518 14.3869 21 12 21C9.61305 21 7.32387 20.0518 5.63604 18.364C3.94821 16.6761 3 14.3869 3 12ZM8.94643 10.1319C8.94643 9.322 9.26814 8.54531 9.8408 7.97266C10.4135 7.4 11.1901 7.07829 12 7.07829C12.8099 7.07829 13.5865 7.4 14.1592 7.97266C14.7319 8.54531 15.0536 9.322 15.0536 10.1319C15.0536 10.9417 14.7319 11.7184 14.1592 12.2911C13.5865 12.8637 12.8099 13.1854 12 13.1854C11.1901 13.1854 10.4135 12.8637 9.8408 12.2911C9.26814 11.7184 8.94643 10.9417 8.94643 10.1319ZM16.6543 16.6761C16.7304 16.7926 16.761 16.933 16.7401 17.0706C16.7193 17.2082 16.6484 17.3332 16.5411 17.4219C15.2693 18.4899 13.6609 19.0742 12 19.0714C10.339 19.0738 8.73055 18.4891 7.45886 17.4206C7.35179 17.3318 7.2812 17.2066 7.26057 17.0691C7.23993 16.9315 7.2707 16.7912 7.347 16.6749C7.85427 15.9041 8.54507 15.2713 9.35733 14.8335C10.1696 14.3957 11.0779 14.1665 12.0006 14.1665C12.9234 14.1665 13.8317 14.3957 14.644 14.8335C15.4562 15.2713 16.147 15.9041 16.6543 16.6749V16.6761Z" fill="#00FFFF"/>
</svg>
