<svg width="18" height="18" viewBox="0 0 18 18" fill="none" xmlns="http://www.w3.org/2000/svg">
<path fill-rule="evenodd" clip-rule="evenodd" d="M0 9C0 6.61305 0.948211 4.32387 2.63604 2.63604C4.32387 0.948211 6.61305 0 9 0C11.3869 0 13.6761 0.948211 15.364 2.63604C17.0518 4.32387 18 6.61305 18 9C18 11.3869 17.0518 13.6761 15.364 15.364C13.6761 17.0518 11.3869 18 9 18C6.61305 18 4.32387 17.0518 2.63604 15.364C0.948211 13.6761 0 11.3869 0 9ZM5.94643 7.13186C5.94643 6.322 6.26814 5.54531 6.8408 4.97266C7.41345 4.4 8.19014 4.07829 9 4.07829C9.80986 4.07829 10.5865 4.4 11.1592 4.97266C11.7319 5.54531 12.0536 6.322 12.0536 7.13186C12.0536 7.94171 11.7319 8.7184 11.1592 9.29106C10.5865 9.86371 9.80986 10.1854 9 10.1854C8.19014 10.1854 7.41345 9.86371 6.8408 9.29106C6.26814 8.7184 5.94643 7.94171 5.94643 7.13186ZM13.6543 13.6761C13.7304 13.7926 13.761 13.933 13.7401 14.0706C13.7193 14.2082 13.6484 14.3332 13.5411 14.4219C12.2693 15.4899 10.6609 16.0742 9 16.0714C7.33898 16.0738 5.73055 15.4891 4.45886 14.4206C4.35179 14.3318 4.2812 14.2066 4.26057 14.0691C4.23993 13.9315 4.2707 13.7912 4.347 13.6749C4.85427 12.9041 5.54507 12.2713 6.35733 11.8335C7.1696 11.3957 8.0779 11.1665 9.00064 11.1665C9.92339 11.1665 10.8317 11.3957 11.644 11.8335C12.4562 12.2713 13.147 12.9041 13.6543 13.6749V13.6761Z" fill="#00FFFF"/>
</svg>
